<svg width="22" height="10" viewBox="0 0 22 10" fill="none" xmlns="http://www.w3.org/2000/svg">
<rect width="22" height="9.70203" rx="4.85102" fill="white"/>
<path d="M5.75326 2.20161C5.52196 2.20161 5.38721 2.37804 5.38721 2.63086V2.79415V4.3968V4.56473C5.38721 4.81189 5.52196 4.99098 5.75326 4.99098C5.98022 4.99098 6.12098 4.81189 6.12098 4.56473V4.3968V2.79415V2.63086C6.12098 2.37804 5.98022 2.20161 5.75326 2.20161Z" fill="#1756C2"/>
<path d="M7.47329 2.96747H7.30079V2.86142C7.30079 2.74238 7.37087 2.69223 7.55632 2.7131C7.75363 2.73122 7.79798 2.60701 7.79798 2.50778C7.79798 2.43101 7.77532 2.39203 7.71544 2.32328C7.58758 2.19786 7.26406 2.20158 7.26406 2.20158C7.26406 2.20158 6.97082 2.1882 6.77195 2.34439C6.5739 2.49643 6.59119 2.7733 6.59119 2.7733V2.96747H6.55944C6.42782 2.96747 6.28809 3.04853 6.28809 3.21487C6.28809 3.38241 6.44662 3.45918 6.57385 3.45918H6.59114V4.61335C6.59114 4.81186 6.71417 4.99095 6.95681 4.99095C7.20438 4.99095 7.30079 4.81746 7.30079 4.62456V3.45918H7.47324C7.56863 3.45918 7.75798 3.41319 7.75798 3.22458C7.75798 3.02872 7.60863 2.96747 7.47324 2.96747H7.47329Z" fill="#1756C2"/>
<path d="M9.54293 2.90356C9.42424 2.90356 9.32935 2.95636 9.26722 3.03641C9.15308 2.958 9.00266 2.90356 8.82732 2.90356C8.08006 2.90356 7.74902 3.45924 7.74902 3.99574C7.74902 4.57012 8.15122 5.01449 8.82732 5.01449C8.98751 5.01449 9.1418 4.96168 9.26629 4.88062C9.32725 4.9627 9.42273 5.01449 9.54293 5.01449C9.77531 5.01449 9.90781 4.83733 9.90781 4.58722V3.33232C9.90781 3.08651 9.77531 2.90356 9.54293 2.90356ZM8.47479 3.96801C8.47479 3.51098 8.69901 3.42991 8.84954 3.42991C8.85555 3.42991 8.86307 3.42991 8.86834 3.42991C9.04143 3.44334 9.17775 3.55746 9.17775 3.98782C9.17775 4.41122 9.03005 4.49606 8.87689 4.50451C8.86786 4.50451 8.86336 4.50451 8.85374 4.50451C8.68182 4.50451 8.47474 4.42344 8.47474 3.96801H8.47479Z" fill="#1756C2"/>
<path d="M5.10395 4.44154C5.06591 4.32849 4.44847 2.58724 4.41785 2.50506C4.38385 2.4225 4.35255 2.36269 4.27797 2.31109C4.15465 2.21858 3.89052 2.22408 3.89052 2.22408C3.89052 2.22408 3.63001 2.21814 3.50444 2.31109C3.43103 2.36274 3.39972 2.42255 3.36739 2.50506C3.33613 2.58719 2.7187 4.32849 2.67616 4.44154C2.64158 4.55208 2.61164 4.6875 2.67616 4.79789C2.74698 4.90128 2.8638 4.99099 3.01482 4.99099C3.16793 4.99099 3.3038 4.92519 3.36305 4.74079C3.42082 4.55208 3.45106 4.45985 3.45106 4.45985H3.89052H4.33238C4.33238 4.45985 4.36109 4.55213 4.41931 4.74079C4.47753 4.92524 4.61663 4.99099 4.76559 4.99099C4.92227 4.99099 5.04197 4.90128 5.10395 4.79789C5.17106 4.6875 5.14503 4.55208 5.10395 4.44154ZM3.61706 3.86011L3.89052 2.97702L4.16485 3.86011H3.61706Z" fill="#1756C2"/>
<path d="M18.1554 7.08798H2.63721V7.41935H18.1554C18.6316 7.41935 19.0305 7.0731 19.1033 6.62457C18.8898 6.90676 18.5426 7.08798 18.1554 7.08798Z" fill="#EFCF00"/>
<path d="M19.1151 5.91048V5.64491H3.5998C3.07013 5.64491 2.63721 6.07349 2.63721 6.59791V6.86348H18.1554C18.6861 6.86348 19.1151 6.43428 19.1151 5.91048Z" fill="#D60F27"/>
<path d="M13.0786 2.88208C12.686 2.88208 12.3043 3.40206 12.1689 3.60323C12.1749 3.55738 12.185 3.48748 12.2067 3.40757C12.2352 3.27515 12.2601 3.08755 12.1689 2.97702C12.1155 2.91305 12.0369 2.88208 11.9313 2.88208C11.5677 2.88208 11.2086 3.3408 11.0551 3.56531C11.0732 3.4997 11.0949 3.41757 11.1095 3.37013C11.1333 3.25974 11.1802 3.0876 11.105 2.98731C11.0601 2.92542 10.9863 2.89759 10.8816 2.89759C10.7106 2.89759 10.5204 2.97702 10.5124 2.97702L10.4736 2.99426L10.5091 3.01494C10.5091 3.01494 10.5614 3.06673 10.5211 3.34075C10.4521 3.82247 10.2932 4.39675 10.2312 4.62454C10.1955 4.74073 10.201 4.83562 10.2479 4.89857C10.2974 4.96268 10.3875 4.99944 10.4999 4.99944C10.6565 4.99944 10.799 4.94765 10.807 4.94021L10.8301 4.93427L10.8117 4.91093C10.8117 4.90944 10.7299 4.78924 10.8378 4.55565C11.2012 3.75609 11.4949 3.43772 11.577 3.38341C11.5964 3.37448 11.6077 3.3638 11.6217 3.3638C11.6307 3.3638 11.6352 3.36974 11.6352 3.37419C11.6442 3.37863 11.6457 3.39829 11.6442 3.41631C11.6146 3.6942 11.496 4.15829 11.4196 4.46859C11.4032 4.53956 11.3856 4.59729 11.3762 4.6458C11.3483 4.76465 11.3576 4.85687 11.4032 4.91818C11.4486 4.96891 11.522 4.99823 11.6259 4.99823C11.7888 4.99823 11.9329 4.939 11.9387 4.93799L11.9684 4.92606L11.9463 4.9063C11.9463 4.89886 11.8676 4.79735 11.978 4.55014C12.2466 3.93509 12.6094 3.45458 12.7037 3.38467C12.7356 3.36249 12.7518 3.35964 12.7615 3.35964C12.7644 3.35964 12.7659 3.35964 12.772 3.36858C12.7795 3.37602 12.7825 3.40235 12.7795 3.43419C12.778 3.44607 12.7675 3.48434 12.759 3.5413C12.7052 3.75416 12.6097 4.19428 12.5573 4.50048C12.526 4.68329 12.5412 4.8203 12.6097 4.89828C12.6652 4.96123 12.7521 4.99794 12.8577 4.99794C13.0421 4.99794 13.2125 4.88432 13.22 4.88016L13.2469 4.86199L13.2223 4.84547C13.2223 4.84547 13.0917 4.72377 13.1558 4.36492C13.2012 4.12437 13.2599 3.84764 13.3041 3.64647C13.3252 3.5456 13.3387 3.46182 13.35 3.41602L13.353 3.398C13.3766 3.28761 13.4123 3.08605 13.3157 2.9718C13.2646 2.90571 13.1874 2.88058 13.0801 2.88058L13.0786 2.88208Z" fill="#D60F27"/>
<path d="M15.3731 2.90355C15.2616 2.90355 15.1709 2.93302 15.1089 2.99254C15.0635 2.96486 14.9087 2.88215 14.7056 2.88215C14.5896 2.88215 14.4192 2.90355 14.2279 3.02346C14.0155 3.15366 13.8364 3.36164 13.6904 3.64639C13.3599 4.28377 13.5183 4.74925 13.6013 4.86351C13.6737 4.96274 13.7738 5.00753 13.9184 5.00753C14.1227 5.00753 14.3945 4.9281 14.8091 4.28377C14.797 4.37455 14.7833 4.50199 14.7833 4.61074C14.7833 4.96173 15.0333 4.99951 15.1363 4.99951C15.4033 4.99951 15.4964 4.87631 15.4971 4.87216L15.5077 4.85877L15.4971 4.84539C15.4941 4.8409 15.3727 4.71833 15.4526 4.0655C15.5296 3.44363 15.7478 3.01486 15.7478 3.00964L15.7584 2.99235L15.7399 2.98046C15.7323 2.97747 15.5523 2.9037 15.3733 2.9037L15.3731 2.90355ZM14.2198 4.52963C14.1653 4.52963 14.1363 4.4374 14.1363 4.34082C14.1363 4.23628 14.1891 3.63417 14.4468 3.32531C14.5039 3.26521 14.5719 3.22729 14.6398 3.22729C14.8048 3.22729 14.959 3.40203 14.9972 3.44701C14.7972 3.84916 14.5163 4.26575 14.3164 4.46987C14.2797 4.51045 14.2442 4.52968 14.2198 4.52968V4.52963Z" fill="#D60F27"/>
<path d="M17.4213 2.8821C17.1327 2.8821 16.7862 3.35464 16.6395 3.57378C16.6637 3.47904 16.6993 3.33928 16.7267 3.21062C16.7457 3.11419 16.7327 3.03892 16.695 2.98834C16.6453 2.93298 16.5635 2.90355 16.4491 2.90355C16.2853 2.90355 16.0875 2.97433 16.0805 2.97704L16.0517 2.98892L16.0771 3.01037C16.0771 3.01332 16.1305 3.08815 16.0976 3.35107C16.0517 3.63751 15.8675 4.3516 15.7898 4.6407C15.7541 4.75689 15.7628 4.84163 15.806 4.90187C15.8717 4.98995 15.9995 5.00009 16.0875 5.00009C16.2372 5.00009 16.3861 4.9483 16.3925 4.94086L16.4211 4.93492L16.404 4.91158C16.4029 4.91009 16.3327 4.7994 16.4145 4.58558C16.635 4.03511 16.88 3.7136 17.0271 3.60325C17.0611 3.57973 17.0957 3.56528 17.1296 3.56528C17.2104 3.56528 17.2617 3.65499 17.2617 3.65499L17.2737 3.67746L17.2916 3.65934C17.3686 3.58359 17.5061 3.42286 17.5562 3.27787C17.5908 3.19096 17.6356 3.03641 17.5682 2.9467C17.5402 2.90191 17.4902 2.88215 17.4211 2.88215L17.4213 2.8821Z" fill="#D60F27"/>
<path d="M19.0875 3.14085C19.0066 3.16848 18.8077 3.18665 18.5408 3.18665C18.5107 3.18665 18.4859 3.18665 18.4692 3.18665C18.4812 3.11838 18.5295 2.92538 18.5818 2.74242C18.6148 2.63203 18.611 2.5414 18.5639 2.4828C18.5176 2.42671 18.4417 2.40154 18.3263 2.40154C18.1645 2.40154 17.9315 2.47313 17.9225 2.47729L17.8879 2.48767L17.9176 2.51449C18.007 2.60493 17.9101 3.04084 17.8685 3.20288C17.864 3.21182 17.6367 4.0765 17.6367 4.48971C17.6367 4.8364 17.8286 5.00824 18.1963 5.00824C18.3678 5.00824 18.6179 4.9624 18.7861 4.81823C18.8595 4.75548 18.8918 4.66576 18.8724 4.57083C18.8619 4.50271 18.8277 4.44928 18.8277 4.44662L18.8157 4.42145L18.7942 4.44126C18.7912 4.44126 18.7155 4.51488 18.5643 4.56547C18.5073 4.58199 18.4625 4.59329 18.4162 4.59329C18.3676 4.59329 18.3267 4.57349 18.2883 4.5415C18.2032 4.45507 18.2581 4.14636 18.2763 4.04713C18.3049 3.89036 18.3748 3.5986 18.39 3.52556C18.4165 3.52556 18.472 3.52449 18.5431 3.52449C18.6042 3.52449 18.6564 3.52556 18.7075 3.52556C19.024 3.5315 19.1126 3.28825 19.1157 3.15974V3.12756L19.0875 3.14085Z" fill="#D60F27"/>
</svg>
