<svg width="12" height="11" viewBox="0 0 12 11" fill="none" xmlns="http://www.w3.org/2000/svg">
<path fill-rule="evenodd" clip-rule="evenodd" d="M5.73802 0.376221C5.7267 0.376221 5.71528 0.376221 5.70386 0.376221C4.18403 0.376221 2.721 0.719353 1.30355 1.41091C0.728584 2.73894 0.404059 4.08906 0.386979 5.46678C0.36424 6.83351 0.654604 8.23344 1.29779 9.66097C2.7779 10.2862 4.25801 10.6072 5.73802 10.6238C7.21813 10.6072 8.69825 10.2862 10.1784 9.66097C10.8215 8.23344 11.1119 6.83351 11.0892 5.46678C11.0721 4.08906 10.7476 2.73894 10.1726 1.41091C8.75515 0.719353 7.29211 0.376221 5.77218 0.376221C5.76087 0.376221 5.74944 0.376221 5.73802 0.376221V0.376221Z" fill="#FEFEFE"/>
<path d="M1.06453 1.1066C2.55596 0.365234 4.10439 0 5.70396 0C5.71538 0 5.72681 0 5.73812 0C5.74954 0 5.76097 0 5.77228 0C7.37196 0 8.92029 0.365234 10.4118 1.1066L10.5029 1.20071C11.112 2.59504 11.4593 4.01717 11.4764 5.4613C11.4764 5.4889 11.4764 5.5111 11.4764 5.5387V5.63831C11.4706 7.02724 11.1632 8.44367 10.5029 9.8823L10.4004 9.97641C8.84631 10.6459 7.29222 10.9834 5.73812 11C4.18414 10.9834 2.62994 10.6459 1.07595 9.97641L0.973469 9.8823C0.313103 8.44367 0.00565849 7.02724 0 5.63831V5.5387C0 5.5111 0 5.4889 0 5.4613C0.0170802 4.01717 0.364344 2.59504 0.973469 1.20071L1.06453 1.1066V1.1066ZM5.73812 0.376234C5.72681 0.376234 5.71538 0.376234 5.70396 0.376234C4.18414 0.376234 2.7211 0.719366 1.30365 1.41093C0.728687 2.73895 0.404163 4.08907 0.387082 5.4668C0.364344 6.83352 0.654708 8.23345 1.29789 9.66098C2.778 10.2862 4.25811 10.6072 5.73812 10.6238C7.21824 10.6072 8.69835 10.2862 10.1785 9.66098C10.8216 8.23345 11.112 6.83352 11.0893 5.4668C11.0722 4.08907 10.7477 2.73895 10.1727 1.41093C8.75525 0.719366 7.29222 0.376234 5.77228 0.376234C5.76097 0.376234 5.74954 0.376234 5.73812 0.376234V0.376234Z" fill="#003399"/>
<path fill-rule="evenodd" clip-rule="evenodd" d="M5.84076 8.57095C5.76112 7.51405 5.81236 6.41295 5.48784 5.40596C5.18616 4.46528 4.04189 3.92853 4.01915 2.89384C3.99641 2.08596 4.62827 1.15088 5.81236 1.15088C6.92237 1.14538 7.61124 1.93105 7.69087 2.80533C7.7877 3.81792 6.52386 4.49848 6.19368 5.46127C5.85218 6.44616 5.9489 7.53626 5.84076 8.57095V8.57095Z" fill="#003399"/>
<path fill-rule="evenodd" clip-rule="evenodd" d="M6.27917 8.31626C6.23369 7.39778 6.23369 6.518 6.49555 5.73772C6.78581 4.85244 7.38928 4.10548 8.31151 3.86195C8.94337 3.69604 9.87126 4.4153 9.7232 5.15127C9.59798 5.74333 8.98885 6.44049 8.00972 6.518C7.55432 6.5567 7.36078 6.91083 7.07618 7.11555C8.35133 6.99384 9.17673 6.5069 9.7517 5.99785C9.8371 6.42939 9.894 7.15425 9.54674 7.40328C8.86363 7.87352 8.23177 7.49179 7.4291 7.71311C6.97935 7.84042 6.70041 8.11704 6.27917 8.31626V8.31626Z" fill="#003399"/>
<path fill-rule="evenodd" clip-rule="evenodd" d="M5.40802 8.31626C5.45926 7.39778 5.4536 6.518 5.19739 5.73772C4.90713 4.85244 4.30367 4.10548 3.38154 3.86195C2.74957 3.69604 1.81603 4.4153 1.96975 5.15127C2.09497 5.74333 2.7041 6.44049 3.68322 6.518C4.13297 6.5567 4.33217 6.91083 4.61677 7.11555C3.33596 6.99384 2.51621 6.5069 1.94125 5.99785C1.85585 6.42939 1.79895 7.15425 2.14621 7.40328C2.82932 7.87352 3.46118 7.49179 4.26385 7.71311C4.71359 7.84042 4.98677 8.11704 5.40802 8.31626Z" fill="#003399"/>
<path fill-rule="evenodd" clip-rule="evenodd" d="M8.44224 9.68321V9.5338L8.55614 9.50609L8.44224 9.34008V9.06345L8.95454 9.75512L8.77242 9.79942L8.6472 9.6278L8.44224 9.68321V9.68321ZM8.44224 9.06345V9.34008L8.3626 9.22947L8.32844 9.5614L8.44224 9.5338V9.68321L8.31136 9.71081L8.28852 9.91553L8.1064 9.95983L8.22596 9.05785L8.40808 9.01365L8.44224 9.06345V9.06345ZM6.74585 10.1646V10.0207H6.78567C6.84833 10.0151 6.88815 10.0096 6.90523 10.0041C6.92797 9.99854 6.95081 9.98194 6.96213 9.96533C6.97921 9.94323 6.98497 9.92113 6.98497 9.89343C6.97921 9.86573 6.97355 9.84362 6.95647 9.82702C6.94505 9.81042 6.92231 9.79942 6.89957 9.79382C6.87673 9.78832 6.82559 9.78832 6.74585 9.79382V9.65001C6.79143 9.65001 6.81983 9.6444 6.83125 9.6444C6.85975 9.6389 6.88249 9.6223 6.89957 9.6057C6.91665 9.5891 6.92231 9.567 6.91665 9.5393C6.91665 9.51159 6.90523 9.48949 6.88815 9.47839C6.87673 9.46189 6.85399 9.45079 6.81983 9.45079C6.80851 9.45079 6.78567 9.45079 6.74585 9.45629V9.31248C6.80851 9.30687 6.85399 9.30687 6.88249 9.31248C6.91665 9.31248 6.95081 9.32348 6.97921 9.34008C7.00771 9.35118 7.03045 9.37328 7.05329 9.40098C7.07037 9.42869 7.08169 9.46189 7.08745 9.50059C7.09311 9.5393 7.08169 9.578 7.06461 9.6112C7.04753 9.6444 7.01913 9.67211 6.97921 9.69421C7.03621 9.70531 7.08169 9.72741 7.11019 9.76062C7.14435 9.79382 7.16143 9.83252 7.16709 9.88233C7.16709 9.92113 7.16143 9.95983 7.15001 9.99854C7.13293 10.0373 7.11019 10.0649 7.08169 10.0926C7.04753 10.1147 7.01337 10.1314 6.96789 10.1425C6.93939 10.148 6.86541 10.1535 6.75727 10.1646H6.74585V10.1646ZM7.8218 9.69981L7.99826 9.72191C7.98684 9.81602 7.95834 9.89343 7.9071 9.94873C7.85585 9.99854 7.78188 10.0373 7.69082 10.0538C7.57702 10.0704 7.47454 10.0483 7.38913 9.98754C7.29807 9.92113 7.24683 9.82702 7.21833 9.69421C7.19559 9.5559 7.21267 9.43969 7.27523 9.35118C7.33224 9.26267 7.42329 9.20737 7.54286 9.18516C7.651 9.16856 7.7364 9.18516 7.81604 9.23497C7.86162 9.26267 7.90144 9.30687 7.92994 9.37328L7.76479 9.43969C7.74771 9.40098 7.71932 9.36778 7.68516 9.35118C7.64523 9.32908 7.60541 9.32348 7.55994 9.32908C7.49727 9.34008 7.45169 9.37328 7.41753 9.42308C7.38348 9.47839 7.37771 9.5504 7.39479 9.65001C7.41753 9.75512 7.45169 9.82702 7.49727 9.86573C7.54286 9.90453 7.59976 9.92113 7.66231 9.91003C7.7079 9.89893 7.74206 9.87683 7.77056 9.84362C7.79896 9.81042 7.81604 9.76062 7.8218 9.69981V9.69981ZM6.74585 9.31248V9.45629C6.72311 9.45629 6.70027 9.46189 6.67187 9.46189L6.56939 9.47289L6.58647 9.66661L6.70603 9.65551C6.71735 9.65551 6.73443 9.65551 6.74585 9.65001V9.79382C6.74585 9.79382 6.74585 9.79382 6.74019 9.79382L6.60355 9.80492L6.62063 10.0317L6.74585 10.0207V10.1646L6.46125 10.1923L6.3815 9.34568L6.72877 9.31798C6.73443 9.31248 6.74019 9.31248 6.74585 9.31248V9.31248ZM5.64716 9.87133V9.72741C5.68698 9.72741 5.70982 9.72191 5.7269 9.71631C5.74964 9.71081 5.76672 9.69421 5.7838 9.67761C5.79522 9.65551 5.80088 9.6334 5.80088 9.6112C5.80654 9.578 5.79522 9.5559 5.77814 9.5338C5.76106 9.51159 5.73822 9.50059 5.70982 9.49499C5.69274 9.49499 5.67566 9.48949 5.64716 9.48949V9.34568C5.73256 9.34568 5.7838 9.35118 5.8123 9.36218C5.86354 9.37328 5.90336 9.40098 5.93752 9.44529C5.97168 9.48949 5.98876 9.5448 5.983 9.6112C5.983 9.66101 5.97168 9.70531 5.9546 9.74401C5.93176 9.77722 5.90902 9.80492 5.88062 9.82702C5.84646 9.84362 5.81796 9.85473 5.7838 9.86573C5.74964 9.87133 5.70406 9.87133 5.64716 9.87133V9.87133ZM5.64716 9.34568V9.48949C5.63008 9.48949 5.60734 9.48949 5.57884 9.48949L5.49344 9.48399V9.72741H5.5846C5.60734 9.72741 5.63008 9.72741 5.64716 9.72741V9.87133C5.63584 9.87133 5.61876 9.87133 5.60168 9.87133H5.48778L5.48212 10.1923L5.30566 10.1867L5.32274 9.34008L5.60168 9.34568C5.61876 9.34568 5.63584 9.34568 5.64716 9.34568V9.34568ZM4.00201 9.78832V9.5283C4.05325 9.5393 4.08741 9.5393 4.10449 9.5393C4.12723 9.5338 4.14431 9.5283 4.16139 9.51159C4.17281 9.49499 4.18413 9.47839 4.18989 9.45079C4.19555 9.42308 4.18989 9.40098 4.17847 9.37878C4.16705 9.35668 4.14431 9.34568 4.11591 9.33458C4.10449 9.32908 4.06467 9.32348 4.00201 9.31248V9.16856L4.07599 9.17966C4.16705 9.19626 4.22971 9.21287 4.26953 9.23497C4.30945 9.25707 4.33785 9.29027 4.35493 9.33458C4.37201 9.37328 4.37767 9.42308 4.36635 9.47289C4.35493 9.5338 4.32653 9.5836 4.28095 9.6168C4.24113 9.65001 4.17847 9.66661 4.09883 9.66661C4.13299 9.69421 4.16139 9.72191 4.17847 9.74951C4.20121 9.78282 4.22405 9.83252 4.25245 9.90453L4.32653 10.087L4.12157 10.0483L4.03051 9.84362C4.01909 9.82702 4.01343 9.80492 4.00201 9.78832V9.78832ZM4.50299 9.26267L4.67379 9.27927L4.63387 9.73851C4.62821 9.81042 4.62821 9.86023 4.62821 9.87683C4.63387 9.91553 4.65095 9.94323 4.67379 9.96533C4.70219 9.99304 4.73635 10.0041 4.78759 10.0096C4.83883 10.0151 4.87865 10.0041 4.9015 9.98754C4.92989 9.97094 4.94697 9.94873 4.95839 9.92113C4.96405 9.89343 4.96971 9.84362 4.97548 9.77722L5.01529 9.30687L5.19176 9.32348L5.15194 9.76622C5.14617 9.87133 5.13486 9.94323 5.11778 9.98194C5.10635 10.0207 5.08362 10.0594 5.06088 10.0815C5.03237 10.1092 4.99256 10.1314 4.94697 10.1425C4.90715 10.1591 4.85026 10.1591 4.78193 10.1535C4.69653 10.148 4.63387 10.1314 4.59405 10.1092C4.55423 10.087 4.52007 10.0594 4.49723 10.0317C4.47449 9.99854 4.46307 9.96533 4.45741 9.93213C4.45175 9.88233 4.45175 9.81042 4.45741 9.71631L4.50299 9.26267V9.26267ZM3.1197 9.51159L3.15386 9.37328L3.52386 9.46739L3.4327 9.79382C3.38722 9.82152 3.33032 9.83812 3.25058 9.84362C3.1766 9.84912 3.10828 9.84362 3.03996 9.82702C2.9489 9.80492 2.87492 9.76622 2.82368 9.71631C2.76667 9.66101 2.73251 9.5946 2.71543 9.52269C2.70412 9.44529 2.70412 9.36778 2.72686 9.29027C2.74959 9.20737 2.78952 9.13536 2.84642 9.07455C2.89766 9.01915 2.96598 8.98594 3.04562 8.96944C3.10828 8.95284 3.18226 8.95834 3.262 8.98044C3.36448 9.00815 3.44412 9.04685 3.4897 9.10776C3.53518 9.16306 3.55802 9.23497 3.55226 9.31248L3.3758 9.30137C3.3758 9.25707 3.36448 9.21837 3.33598 9.18516C3.30748 9.15746 3.27332 9.12986 3.22208 9.11876C3.1481 9.10216 3.08554 9.10776 3.02854 9.14086C2.97164 9.17406 2.93182 9.24057 2.90332 9.32908C2.87492 9.42869 2.88058 9.50609 2.90908 9.567C2.94324 9.6278 2.99438 9.66661 3.0627 9.68321C3.10262 9.69421 3.13678 9.69421 3.1766 9.69421C3.21642 9.68871 3.25058 9.67761 3.28474 9.66661L3.31324 9.5614L3.1197 9.51159V9.51159ZM4.00201 9.16856L3.70598 9.11876L3.55802 9.95433L3.72872 9.98194L3.79138 9.63341L3.8312 9.63891C3.87113 9.6444 3.89952 9.65551 3.9166 9.66101C3.93369 9.67211 3.94511 9.68871 3.96219 9.70531C3.96785 9.72191 3.98493 9.74951 4.00201 9.78832V9.5283C3.98493 9.5283 3.96785 9.52269 3.94511 9.52269L3.81989 9.50059L3.85405 9.29027L3.99058 9.31248C3.99635 9.31248 4.00201 9.31248 4.00201 9.31248V9.16856Z" fill="#003399"/>
</svg>
