<svg width="10" height="10" viewBox="0 0 10 10" fill="none" xmlns="http://www.w3.org/2000/svg">
<g clip-path="url(#clip0_140_804)">
<path fill-rule="evenodd" clip-rule="evenodd" d="M0.00244141 9.97744H10.0197V-0.0034132H0.00244141V9.97744Z" fill="white"/>
<path fill-rule="evenodd" clip-rule="evenodd" d="M4.01563 6.7324L5.07771 5.87398C4.90155 5.65193 4.73355 5.42305 4.57332 5.19171C3.34019 3.41247 2.61375 1.59872 3.14014 -0.0034132H0.00244141V1.72671L4.01563 6.7324Z" fill="#E94D11"/>
<path fill-rule="evenodd" clip-rule="evenodd" d="M5.69479 4.14499C5.76078 3.58086 5.93069 2.51441 6.96793 1.72406C7.86618 1.03952 8.9878 0.908488 9.98314 1.33059V-0.0034132H4.44479C4.07901 1.62166 5.04059 3.40602 5.69479 4.14499Z" fill="#E94D11"/>
<path fill-rule="evenodd" clip-rule="evenodd" d="M7.0363 2.51801L7.03251 2.52105C5.99071 3.36696 6.24727 4.69508 7.21549 5.88724C7.96413 6.809 8.96401 7.45429 9.98267 6.96506V3.03834C9.06774 2.10179 7.96944 1.7599 7.0363 2.51801Z" fill="#E94D11"/>
<path fill-rule="evenodd" clip-rule="evenodd" d="M0.00244141 3.77446V9.97725H0.0031999L3.02315 7.53508L0.00244141 3.77446Z" fill="#E94D11"/>
<path fill-rule="evenodd" clip-rule="evenodd" d="M5.49339 6.36738C5.1989 6.61142 4.83141 6.9116 4.42334 7.24135L4.8151 7.72983C5.38397 8.43959 6.21244 9.66645 7.24134 9.33461L7.27926 9.38126L6.54883 9.97725H9.98273V7.61548C8.21582 8.5765 6.69807 7.70195 5.49339 6.36738Z" fill="#E94D11"/>
<path fill-rule="evenodd" clip-rule="evenodd" d="M3.83663 8.54805L3.43064 8.04251C2.59914 8.71075 1.72099 9.41217 1.01123 9.97725H4.85434C4.60441 9.44668 4.15064 8.93925 3.83663 8.54805Z" fill="#E94D11"/>
</g>
<defs>
<clipPath id="clip0_140_804">
<rect width="10" height="10" fill="white"/>
</clipPath>
</defs>
</svg>
