<svg width="67" height="24" viewBox="0 0 67 24" fill="none" xmlns="http://www.w3.org/2000/svg">
<path fill-rule="evenodd" clip-rule="evenodd" d="M66.7621 6.56567L62.5362 5.43333L63.9921 0L56.4558 6.39229L60.6817 7.52462L60.6765 7.54414H0V23.5441H62V10.6049L66.7621 6.56567Z" fill="#29AAE3"/>
<path d="M61.0162 6.67131L63.2683 7.27474L59.2521 10.6813L60.028 7.78578L57.7759 7.18235L61.7921 3.77583L61.0162 6.67131Z" fill="white"/>
<path d="M11.1901 11.98V13.35H8.33012V14.83H10.4701V16.16H8.33012V19H6.62012V11.98H11.1901ZM13.7989 11.6V19H12.0889V11.6H13.7989ZM14.6981 16.2C14.6981 15.6267 14.8047 15.1233 15.0181 14.69C15.2381 14.2567 15.5347 13.9233 15.9081 13.69C16.2814 13.4567 16.6981 13.34 17.1581 13.34C17.5514 13.34 17.8947 13.42 18.1881 13.58C18.4881 13.74 18.7181 13.95 18.8781 14.21V13.42H20.5881V19H18.8781V18.21C18.7114 18.47 18.4781 18.68 18.1781 18.84C17.8847 19 17.5414 19.08 17.1481 19.08C16.6947 19.08 16.2814 18.9633 15.9081 18.73C15.5347 18.49 15.2381 18.1533 15.0181 17.72C14.8047 17.28 14.6981 16.7733 14.6981 16.2ZM18.8781 16.21C18.8781 15.7833 18.7581 15.4467 18.5181 15.2C18.2847 14.9533 17.9981 14.83 17.6581 14.83C17.3181 14.83 17.0281 14.9533 16.7881 15.2C16.5547 15.44 16.4381 15.7733 16.4381 16.2C16.4381 16.6267 16.5547 16.9667 16.7881 17.22C17.0281 17.4667 17.3181 17.59 17.6581 17.59C17.9981 17.59 18.2847 17.4667 18.5181 17.22C18.7581 16.9733 18.8781 16.6367 18.8781 16.21ZM24.0952 19.08C23.6085 19.08 23.1752 18.9967 22.7952 18.83C22.4152 18.6633 22.1152 18.4367 21.8952 18.15C21.6752 17.8567 21.5518 17.53 21.5252 17.17H23.2152C23.2352 17.3633 23.3252 17.52 23.4852 17.64C23.6452 17.76 23.8418 17.82 24.0752 17.82C24.2885 17.82 24.4518 17.78 24.5652 17.7C24.6852 17.6133 24.7452 17.5033 24.7452 17.37C24.7452 17.21 24.6618 17.0933 24.4952 17.02C24.3285 16.94 24.0585 16.8533 23.6852 16.76C23.2852 16.6667 22.9518 16.57 22.6852 16.47C22.4185 16.3633 22.1885 16.2 21.9952 15.98C21.8018 15.7533 21.7052 15.45 21.7052 15.07C21.7052 14.75 21.7918 14.46 21.9652 14.2C22.1452 13.9333 22.4052 13.7233 22.7452 13.57C23.0918 13.4167 23.5018 13.34 23.9752 13.34C24.6752 13.34 25.2252 13.5133 25.6252 13.86C26.0318 14.2067 26.2652 14.6667 26.3252 15.24H24.7452C24.7185 15.0467 24.6318 14.8933 24.4852 14.78C24.3452 14.6667 24.1585 14.61 23.9252 14.61C23.7252 14.61 23.5718 14.65 23.4652 14.73C23.3585 14.8033 23.3052 14.9067 23.3052 15.04C23.3052 15.2 23.3885 15.32 23.5552 15.4C23.7285 15.48 23.9952 15.56 24.3552 15.64C24.7685 15.7467 25.1052 15.8533 25.3652 15.96C25.6252 16.06 25.8518 16.2267 26.0452 16.46C26.2452 16.6867 26.3485 16.9933 26.3552 17.38C26.3552 17.7067 26.2618 18 26.0752 18.26C25.8952 18.5133 25.6318 18.7133 25.2852 18.86C24.9452 19.0067 24.5485 19.08 24.0952 19.08ZM30.8314 13.36C31.4714 13.36 31.9847 13.5733 32.3714 14C32.758 14.42 32.9514 15 32.9514 15.74V19H31.2514V15.97C31.2514 15.5967 31.1547 15.3067 30.9614 15.1C30.768 14.8933 30.508 14.79 30.1814 14.79C29.8547 14.79 29.5947 14.8933 29.4014 15.1C29.208 15.3067 29.1114 15.5967 29.1114 15.97V19H27.4014V11.6H29.1114V14.17C29.2847 13.9233 29.5214 13.7267 29.8214 13.58C30.1214 13.4333 30.458 13.36 30.8314 13.36ZM38.7988 19.07C38.2854 19.07 37.8254 18.9867 37.4188 18.82C37.0121 18.6533 36.6854 18.4067 36.4388 18.08C36.1988 17.7533 36.0721 17.36 36.0588 16.9H37.8788C37.9054 17.16 37.9954 17.36 38.1488 17.5C38.3021 17.6333 38.5021 17.7 38.7488 17.7C39.0021 17.7 39.2021 17.6433 39.3488 17.53C39.4954 17.41 39.5688 17.2467 39.5688 17.04C39.5688 16.8667 39.5088 16.7233 39.3888 16.61C39.2754 16.4967 39.1321 16.4033 38.9588 16.33C38.7921 16.2567 38.5521 16.1733 38.2388 16.08C37.7854 15.94 37.4154 15.8 37.1288 15.66C36.8421 15.52 36.5954 15.3133 36.3888 15.04C36.1821 14.7667 36.0788 14.41 36.0788 13.97C36.0788 13.3167 36.3154 12.8067 36.7888 12.44C37.2621 12.0667 37.8788 11.88 38.6388 11.88C39.4121 11.88 40.0354 12.0667 40.5088 12.44C40.9821 12.8067 41.2354 13.32 41.2688 13.98H39.4188C39.4054 13.7533 39.3221 13.5767 39.1688 13.45C39.0154 13.3167 38.8188 13.25 38.5788 13.25C38.3721 13.25 38.2054 13.3067 38.0788 13.42C37.9521 13.5267 37.8888 13.6833 37.8888 13.89C37.8888 14.1167 37.9954 14.2933 38.2088 14.42C38.4221 14.5467 38.7554 14.6833 39.2088 14.83C39.6621 14.9833 40.0288 15.13 40.3088 15.27C40.5954 15.41 40.8421 15.6133 41.0488 15.88C41.2554 16.1467 41.3588 16.49 41.3588 16.91C41.3588 17.31 41.2554 17.6733 41.0488 18C40.8488 18.3267 40.5554 18.5867 40.1688 18.78C39.7821 18.9733 39.3254 19.07 38.7988 19.07ZM42.0711 16.2C42.0711 15.6267 42.1778 15.1233 42.3911 14.69C42.6111 14.2567 42.9078 13.9233 43.2811 13.69C43.6544 13.4567 44.0711 13.34 44.5311 13.34C44.9244 13.34 45.2678 13.42 45.5611 13.58C45.8611 13.74 46.0911 13.95 46.2511 14.21V13.42H47.9611V19H46.2511V18.21C46.0844 18.47 45.8511 18.68 45.5511 18.84C45.2578 19 44.9144 19.08 44.5211 19.08C44.0678 19.08 43.6544 18.9633 43.2811 18.73C42.9078 18.49 42.6111 18.1533 42.3911 17.72C42.1778 17.28 42.0711 16.7733 42.0711 16.2ZM46.2511 16.21C46.2511 15.7833 46.1311 15.4467 45.8911 15.2C45.6578 14.9533 45.3711 14.83 45.0311 14.83C44.6911 14.83 44.4011 14.9533 44.1611 15.2C43.9278 15.44 43.8111 15.7733 43.8111 16.2C43.8111 16.6267 43.9278 16.9667 44.1611 17.22C44.4011 17.4667 44.6911 17.59 45.0311 17.59C45.3711 17.59 45.6578 17.4667 45.8911 17.22C46.1311 16.9733 46.2511 16.6367 46.2511 16.21ZM50.9082 11.6V19H49.1982V11.6H50.9082ZM57.4074 16.12C57.4074 16.28 57.3974 16.4467 57.3774 16.62H53.5074C53.5341 16.9667 53.6441 17.2333 53.8374 17.42C54.0374 17.6 54.2808 17.69 54.5674 17.69C54.9941 17.69 55.2908 17.51 55.4574 17.15H57.2774C57.1841 17.5167 57.0141 17.8467 56.7674 18.14C56.5274 18.4333 56.2241 18.6633 55.8574 18.83C55.4908 18.9967 55.0808 19.08 54.6274 19.08C54.0808 19.08 53.5941 18.9633 53.1674 18.73C52.7408 18.4967 52.4074 18.1633 52.1674 17.73C51.9274 17.2967 51.8074 16.79 51.8074 16.21C51.8074 15.63 51.9241 15.1233 52.1574 14.69C52.3974 14.2567 52.7308 13.9233 53.1574 13.69C53.5841 13.4567 54.0741 13.34 54.6274 13.34C55.1674 13.34 55.6474 13.4533 56.0674 13.68C56.4874 13.9067 56.8141 14.23 57.0474 14.65C57.2874 15.07 57.4074 15.56 57.4074 16.12ZM55.6574 15.67C55.6574 15.3767 55.5574 15.1433 55.3574 14.97C55.1574 14.7967 54.9074 14.71 54.6074 14.71C54.3208 14.71 54.0774 14.7933 53.8774 14.96C53.6841 15.1267 53.5641 15.3633 53.5174 15.67H55.6574Z" fill="white"/>
</svg>
