<svg width="16" height="16" viewBox="0 0 16 16" fill="none" xmlns="http://www.w3.org/2000/svg">
<path d="M14.5369 6.69401H13.9999V6.66634H7.99992V9.33301H11.7676C11.2179 10.8853 9.74092 11.9997 7.99992 11.9997C5.79092 11.9997 3.99992 10.2087 3.99992 7.99967C3.99992 5.79067 5.79092 3.99967 7.99992 3.99967C9.01959 3.99967 9.94725 4.38434 10.6536 5.01267L12.5393 3.12701C11.3486 2.01734 9.75592 1.33301 7.99992 1.33301C4.31825 1.33301 1.33325 4.31801 1.33325 7.99967C1.33325 11.6813 4.31825 14.6663 7.99992 14.6663C11.6816 14.6663 14.6666 11.6813 14.6666 7.99967C14.6666 7.55267 14.6206 7.11634 14.5369 6.69401Z" fill="#FBC02D"/>
<path d="M2.10205 4.89668L4.29238 6.50301C4.88505 5.03568 6.32038 3.99968 8.00005 3.99968C9.01972 3.99968 9.94738 4.38434 10.6537 5.01268L12.5394 3.12701C11.3487 2.01734 9.75605 1.33301 8.00005 1.33301C5.43938 1.33301 3.21872 2.77867 2.10205 4.89668Z" fill="#E53935"/>
<path d="M7.99994 14.6669C9.72194 14.6669 11.2866 14.0079 12.4696 12.9362L10.4063 11.1902C9.73694 11.6972 8.90494 12.0002 7.99994 12.0002C6.26594 12.0002 4.79361 10.8946 4.23894 9.35156L2.06494 11.0266C3.16827 13.1856 5.40894 14.6669 7.99994 14.6669Z" fill="#4CAF50"/>
<path d="M14.537 6.69466L14.5317 6.66699H14H8V9.33366H11.7677C11.5037 10.0793 11.024 10.7223 10.4053 11.1907C10.4057 11.1903 10.406 11.1903 10.4063 11.19L12.4697 12.936C12.3237 13.0687 14.6667 11.3337 14.6667 8.00033C14.6667 7.55333 14.6207 7.11699 14.537 6.69466Z" fill="#1565C0"/>
</svg>
