<svg width="82" height="27" viewBox="0 0 82 27" fill="none" xmlns="http://www.w3.org/2000/svg">
<path fill-rule="evenodd" clip-rule="evenodd" d="M70.0236 10.5441C70.0467 10.288 70.0867 10.0326 70.1437 9.77961C70.4053 8.61977 71.0134 7.56435 71.8892 6.75019C72.0024 6.64481 72.1331 6.53054 72.2758 6.40578C73.4855 5.3481 75.5575 3.53634 75.1997 0C79.9999 3.16279 82.4 6.32558 77.5998 11.0698C78.3998 11.0698 79.5999 11.0698 81.6 9.11674C81.816 9.72795 82 10.385 82 11.0698C82 12.6426 81.3678 14.1509 80.2426 15.2631C79.1174 16.3752 77.5913 16.9999 76 17V26.5441H0V10.5441H70.0236Z" fill="#29AAE3"/>
<path d="M74.9999 15C74.3987 14.9999 73.8114 14.8109 73.3142 14.4574C72.8169 14.1038 72.4326 13.6021 72.2111 13.0173C71.9896 12.4325 71.9411 11.7915 72.0719 11.1774C72.2026 10.5634 72.5067 10.0047 72.9446 9.57363C73.4814 9.04493 74.7999 8.09302 74.5999 6C77 7.67442 78.2 9.34884 75.7999 11.8605C76.1999 11.8605 76.7999 11.8605 77.8 10.8265C77.908 11.1501 78 11.498 78 11.8605C78 12.6931 77.6839 13.4917 77.1213 14.0805C76.5586 14.6692 75.7956 15 74.9999 15Z" fill="white"/>
<path d="M12.7001 14.98V22H10.9901V19.11H8.33012V22H6.62012V14.98H8.33012V17.73H10.9901V14.98H12.7001ZM16.4746 22.08C15.9279 22.08 15.4346 21.9633 14.9946 21.73C14.5612 21.4967 14.2179 21.1633 13.9646 20.73C13.7179 20.2967 13.5946 19.79 13.5946 19.21C13.5946 18.6367 13.7212 18.1333 13.9746 17.7C14.2279 17.26 14.5746 16.9233 15.0146 16.69C15.4546 16.4567 15.9479 16.34 16.4946 16.34C17.0412 16.34 17.5346 16.4567 17.9746 16.69C18.4146 16.9233 18.7612 17.26 19.0146 17.7C19.2679 18.1333 19.3946 18.6367 19.3946 19.21C19.3946 19.7833 19.2646 20.29 19.0046 20.73C18.7512 21.1633 18.4012 21.4967 17.9546 21.73C17.5146 21.9633 17.0212 22.08 16.4746 22.08ZM16.4746 20.6C16.8012 20.6 17.0779 20.48 17.3046 20.24C17.5379 20 17.6546 19.6567 17.6546 19.21C17.6546 18.7633 17.5412 18.42 17.3146 18.18C17.0946 17.94 16.8212 17.82 16.4946 17.82C16.1612 17.82 15.8846 17.94 15.6646 18.18C15.4446 18.4133 15.3346 18.7567 15.3346 19.21C15.3346 19.6567 15.4412 20 15.6546 20.24C15.8746 20.48 16.1479 20.6 16.4746 20.6ZM23.4117 20.55V22H22.5417C21.9217 22 21.4384 21.85 21.0917 21.55C20.7451 21.2433 20.5717 20.7467 20.5717 20.06V17.84H19.8917V16.42H20.5717V15.06H22.2817V16.42H23.4017V17.84H22.2817V20.08C22.2817 20.2467 22.3217 20.3667 22.4017 20.44C22.4817 20.5133 22.6151 20.55 22.8017 20.55H23.4117ZM31.8334 17.24C31.8334 17.6467 31.74 18.02 31.5534 18.36C31.3667 18.6933 31.08 18.9633 30.6934 19.17C30.3067 19.3767 29.8267 19.48 29.2534 19.48H28.1934V22H26.4834V14.98H29.2534C29.8134 14.98 30.2867 15.0767 30.6734 15.27C31.06 15.4633 31.35 15.73 31.5434 16.07C31.7367 16.41 31.8334 16.8 31.8334 17.24ZM29.1234 18.12C29.45 18.12 29.6934 18.0433 29.8534 17.89C30.0134 17.7367 30.0934 17.52 30.0934 17.24C30.0934 16.96 30.0134 16.7433 29.8534 16.59C29.6934 16.4367 29.45 16.36 29.1234 16.36H28.1934V18.12H29.1234ZM34.4336 17.35C34.6336 17.0433 34.8836 16.8033 35.1836 16.63C35.4836 16.45 35.8169 16.36 36.1836 16.36V18.17H35.7136C35.2869 18.17 34.9669 18.2633 34.7536 18.45C34.5403 18.63 34.4336 18.95 34.4336 19.41V22H32.7236V16.42H34.4336V17.35ZM39.541 22.08C38.9943 22.08 38.501 21.9633 38.061 21.73C37.6276 21.4967 37.2843 21.1633 37.031 20.73C36.7843 20.2967 36.661 19.79 36.661 19.21C36.661 18.6367 36.7876 18.1333 37.041 17.7C37.2943 17.26 37.641 16.9233 38.081 16.69C38.521 16.4567 39.0143 16.34 39.561 16.34C40.1076 16.34 40.601 16.4567 41.041 16.69C41.481 16.9233 41.8276 17.26 42.081 17.7C42.3343 18.1333 42.461 18.6367 42.461 19.21C42.461 19.7833 42.331 20.29 42.071 20.73C41.8176 21.1633 41.4676 21.4967 41.021 21.73C40.581 21.9633 40.0876 22.08 39.541 22.08ZM39.541 20.6C39.8676 20.6 40.1443 20.48 40.371 20.24C40.6043 20 40.721 19.6567 40.721 19.21C40.721 18.7633 40.6076 18.42 40.381 18.18C40.161 17.94 39.8876 17.82 39.561 17.82C39.2276 17.82 38.951 17.94 38.731 18.18C38.511 18.4133 38.401 18.7567 38.401 19.21C38.401 19.6567 38.5076 20 38.721 20.24C38.941 20.48 39.2143 20.6 39.541 20.6ZM43.0281 19.2C43.0281 18.6267 43.1348 18.1233 43.3481 17.69C43.5681 17.2567 43.8648 16.9233 44.2381 16.69C44.6115 16.4567 45.0281 16.34 45.4881 16.34C45.8548 16.34 46.1881 16.4167 46.4881 16.57C46.7948 16.7233 47.0348 16.93 47.2081 17.19V14.6H48.9181V22H47.2081V21.2C47.0481 21.4667 46.8181 21.68 46.5181 21.84C46.2248 22 45.8815 22.08 45.4881 22.08C45.0281 22.08 44.6115 21.9633 44.2381 21.73C43.8648 21.49 43.5681 21.1533 43.3481 20.72C43.1348 20.28 43.0281 19.7733 43.0281 19.2ZM47.2081 19.21C47.2081 18.7833 47.0881 18.4467 46.8481 18.2C46.6148 17.9533 46.3281 17.83 45.9881 17.83C45.6481 17.83 45.3581 17.9533 45.1181 18.2C44.8848 18.44 44.7681 18.7733 44.7681 19.2C44.7681 19.6267 44.8848 19.9667 45.1181 20.22C45.3581 20.4667 45.6481 20.59 45.9881 20.59C46.3281 20.59 46.6148 20.4667 46.8481 20.22C47.0881 19.9733 47.2081 19.6367 47.2081 19.21ZM55.6653 16.42V22H53.9553V21.24C53.7819 21.4867 53.5453 21.6867 53.2453 21.84C52.9519 21.9867 52.6253 22.06 52.2653 22.06C51.8386 22.06 51.4619 21.9667 51.1353 21.78C50.8086 21.5867 50.5553 21.31 50.3753 20.95C50.1953 20.59 50.1053 20.1667 50.1053 19.68V16.42H51.8053V19.45C51.8053 19.8233 51.9019 20.1133 52.0953 20.32C52.2886 20.5267 52.5486 20.63 52.8753 20.63C53.2086 20.63 53.4719 20.5267 53.6653 20.32C53.8586 20.1133 53.9553 19.8233 53.9553 19.45V16.42H55.6653ZM56.5535 19.21C56.5535 18.63 56.6702 18.1233 56.9035 17.69C57.1435 17.2567 57.4735 16.9233 57.8935 16.69C58.3202 16.4567 58.8069 16.34 59.3535 16.34C60.0535 16.34 60.6369 16.5233 61.1035 16.89C61.5769 17.2567 61.8869 17.7733 62.0335 18.44H60.2135C60.0602 18.0133 59.7635 17.8 59.3235 17.8C59.0102 17.8 58.7602 17.9233 58.5735 18.17C58.3869 18.41 58.2935 18.7567 58.2935 19.21C58.2935 19.6633 58.3869 20.0133 58.5735 20.26C58.7602 20.5 59.0102 20.62 59.3235 20.62C59.7635 20.62 60.0602 20.4067 60.2135 19.98H62.0335C61.8869 20.6333 61.5769 21.1467 61.1035 21.52C60.6302 21.8933 60.0469 22.08 59.3535 22.08C58.8069 22.08 58.3202 21.9633 57.8935 21.73C57.4735 21.4967 57.1435 21.1633 56.9035 20.73C56.6702 20.2967 56.5535 19.79 56.5535 19.21ZM66.0582 20.55V22H65.1882C64.5682 22 64.0849 21.85 63.7382 21.55C63.3916 21.2433 63.2182 20.7467 63.2182 20.06V17.84H62.5382V16.42H63.2182V15.06H64.9282V16.42H66.0482V17.84H64.9282V20.08C64.9282 20.2467 64.9682 20.3667 65.0482 20.44C65.1282 20.5133 65.2616 20.55 65.4482 20.55H66.0582ZM69.2807 22.08C68.7941 22.08 68.3607 21.9967 67.9807 21.83C67.6007 21.6633 67.3007 21.4367 67.0807 21.15C66.8607 20.8567 66.7374 20.53 66.7107 20.17H68.4007C68.4207 20.3633 68.5107 20.52 68.6707 20.64C68.8307 20.76 69.0274 20.82 69.2607 20.82C69.4741 20.82 69.6374 20.78 69.7507 20.7C69.8707 20.6133 69.9307 20.5033 69.9307 20.37C69.9307 20.21 69.8474 20.0933 69.6807 20.02C69.5141 19.94 69.2441 19.8533 68.8707 19.76C68.4707 19.6667 68.1374 19.57 67.8707 19.47C67.6041 19.3633 67.3741 19.2 67.1807 18.98C66.9874 18.7533 66.8907 18.45 66.8907 18.07C66.8907 17.75 66.9774 17.46 67.1507 17.2C67.3307 16.9333 67.5907 16.7233 67.9307 16.57C68.2774 16.4167 68.6874 16.34 69.1607 16.34C69.8607 16.34 70.4107 16.5133 70.8107 16.86C71.2174 17.2067 71.4507 17.6667 71.5107 18.24H69.9307C69.9041 18.0467 69.8174 17.8933 69.6707 17.78C69.5307 17.6667 69.3441 17.61 69.1107 17.61C68.9107 17.61 68.7574 17.65 68.6507 17.73C68.5441 17.8033 68.4907 17.9067 68.4907 18.04C68.4907 18.2 68.5741 18.32 68.7407 18.4C68.9141 18.48 69.1807 18.56 69.5407 18.64C69.9541 18.7467 70.2907 18.8533 70.5507 18.96C70.8107 19.06 71.0374 19.2267 71.2307 19.46C71.4307 19.6867 71.5341 19.9933 71.5407 20.38C71.5407 20.7067 71.4474 21 71.2607 21.26C71.0807 21.5133 70.8174 21.7133 70.4707 21.86C70.1307 22.0067 69.7341 22.08 69.2807 22.08Z" fill="white"/>
</svg>
