<svg width="24" height="24" viewBox="0 0 24 24" fill="none" xmlns="http://www.w3.org/2000/svg">
<g clip-path="url(#clip0_378_6865)">
<path d="M1 10.5V5C1 4.73478 1.10536 4.48043 1.29289 4.29289C1.48043 4.10536 1.73478 4 2 4H20C20.2652 4 20.5196 4.10536 20.7071 4.29289C20.8946 4.48043 21 4.73478 21 5V10.5C20.337 10.5 19.7011 10.7634 19.2322 11.2322C18.7634 11.7011 18.5 12.337 18.5 13C18.5 13.663 18.7634 14.2989 19.2322 14.7678C19.7011 15.2366 20.337 15.5 21 15.5V21C21 21.2652 20.8946 21.5196 20.7071 21.7071C20.5196 21.8946 20.2652 22 20 22H2C1.73478 22 1.48043 21.8946 1.29289 21.7071C1.10536 21.5196 1 21.2652 1 21V15.5C1.66304 15.5 2.29893 15.2366 2.76777 14.7678C3.23661 14.2989 3.5 13.663 3.5 13C3.5 12.337 3.23661 11.7011 2.76777 11.2322C2.29893 10.7634 1.66304 10.5 1 10.5ZM13 6H3V8.968C3.75121 9.3403 4.38347 9.91505 4.8255 10.6275C5.26754 11.3399 5.50176 12.1616 5.50176 13C5.50176 13.8384 5.26754 14.6601 4.8255 15.3725C4.38347 16.085 3.75121 16.6597 3 17.032V20H13V6ZM15 6V20H19V17.032C18.2488 16.6597 17.6165 16.085 17.1745 15.3725C16.7325 14.6601 16.4982 13.8384 16.4982 13C16.4982 12.1616 16.7325 11.3399 17.1745 10.6275C17.6165 9.91505 18.2488 9.3403 19 8.968V6H15Z" fill="#29AAE3"/>
</g>
<defs>
<clipPath id="clip0_378_6865">
<rect width="24" height="24" fill="white"/>
</clipPath>
</defs>
</svg>
