<svg width="17" height="7" viewBox="0 0 17 7" fill="none" xmlns="http://www.w3.org/2000/svg">
<path fill-rule="evenodd" clip-rule="evenodd" d="M0 0H17V6.01372H0V0Z" fill="white"/>
<path fill-rule="evenodd" clip-rule="evenodd" d="M0.755146 0.376297H16.2453C16.463 0.376297 16.6411 0.556258 16.6411 0.776471V2.01132H14.7025C14.6007 0.893133 9.4957 0.654799 8.61353 0.648118C7.19129 0.637345 2.29329 0.970211 2.29329 1.9896L2.29321 2.01132H0.359375V0.776471C0.359375 0.556258 0.537438 0.376297 0.755146 0.376297Z" fill="#FF0000"/>
<path fill-rule="evenodd" clip-rule="evenodd" d="M2.29187 3.83931H0.359375V2.17915H2.29296C2.29128 2.69933 2.28422 3.33717 2.29187 3.83931ZM16.6411 2.17915V3.83931H14.7069C14.7222 3.32038 14.6879 2.70284 14.7004 2.17915H16.6411Z" fill="#0000FF"/>
<path fill-rule="evenodd" clip-rule="evenodd" d="M16.6411 4.00717V5.23734C16.6411 5.45738 16.463 5.63743 16.2453 5.63743H0.755146C0.537438 5.63743 0.359375 5.45738 0.359375 5.23734V4.00717H2.30488C2.54376 5.01203 6.55606 5.40686 8.56322 5.41805C9.69392 5.42432 14.4009 5.06673 14.6897 4.00717H16.6411Z" fill="#F9CD09"/>
<path fill-rule="evenodd" clip-rule="evenodd" d="M8.58937 0.941485C9.69194 0.951589 14.4143 1.42876 14.3709 2.021C14.3344 2.5183 14.4086 3.48257 14.3709 3.97987C14.3272 4.55616 9.65842 5.06014 8.55956 5.05087C7.37493 5.04093 2.64533 4.65119 2.62602 3.9265C2.61274 3.42821 2.62602 2.57433 2.62602 2.07587C2.62602 1.33623 7.38652 0.930545 8.58937 0.941485ZM8.58442 1.39535C7.44867 1.38684 2.95375 1.65924 2.95375 2.23545C2.95375 2.62394 2.94157 3.39096 2.95375 3.77919C2.97198 4.35841 7.43776 4.58931 8.55628 4.597C9.59383 4.60418 14.0022 4.26973 14.0434 3.82078C14.079 3.4333 14.009 2.59479 14.0434 2.20731C14.0845 1.74592 9.6255 1.4032 8.58442 1.39535Z" fill="#E6252D"/>
<path fill-rule="evenodd" clip-rule="evenodd" d="M6.70732 3.06043C6.76527 3.08641 6.75427 3.22612 6.68271 3.37134C6.61107 3.51664 6.50549 3.61385 6.44745 3.58788C6.38941 3.56191 6.40041 3.42219 6.47206 3.27689C6.54362 3.13158 6.64928 3.03438 6.70732 3.06043ZM10.6366 3.07296C10.6946 3.09902 10.6837 3.23873 10.612 3.38395C10.5404 3.52917 10.4348 3.62646 10.3768 3.6004C10.3187 3.57443 10.3297 3.4348 10.4014 3.2895C10.4729 3.14428 10.5786 3.04699 10.6366 3.07296ZM12.5655 3.03221C12.5972 3.05601 12.5685 3.1472 12.5017 3.23522C12.4348 3.32315 12.3544 3.37543 12.3227 3.35163C12.291 3.32775 12.3197 3.23655 12.3865 3.14862C12.4534 3.06069 12.5338 3.00833 12.5655 3.03221ZM12.6062 2.8439C12.3856 2.82719 12.2379 2.97935 12.1606 3.12958C12.0992 3.24875 12.081 3.41994 12.1248 3.56299C12.0612 3.6141 11.9819 3.65827 11.8557 3.68333C11.7931 3.69569 11.7586 3.64859 11.7592 3.60533C11.7607 3.48082 11.7742 3.37652 11.8102 3.25969C11.8249 3.2115 11.8751 3.22795 11.8921 3.18712C11.9273 3.10244 11.9315 3.0206 11.8191 3.03405C11.7469 3.04256 11.6686 3.05342 11.666 2.9563C11.6633 2.86152 11.7797 2.81091 11.7623 2.80273C11.698 2.772 11.6438 2.80248 11.5766 2.77868C11.5578 2.772 11.5732 2.72949 11.5543 2.72314C11.5286 2.71471 11.4834 2.74168 11.4686 2.76415C11.4361 2.81367 11.4389 2.85901 11.4147 2.91747C11.3945 2.96649 11.3924 3.02102 11.3812 3.07279C11.3462 3.17484 11.124 3.49084 10.9608 3.57326C10.8692 3.61961 10.8114 3.57877 10.8398 3.48349C10.8777 3.35639 11.0035 3.04691 11.0854 2.82861C11.0054 2.83054 10.9344 2.8368 10.8544 2.83864C10.845 2.86644 10.8312 2.88523 10.8219 2.91296C10.6426 2.79889 10.5336 2.84256 10.3708 2.95897C10.2497 3.04565 10.1434 3.17668 10.0862 3.33368C10.0635 3.39597 10.051 3.45911 10.0494 3.51823C9.95034 3.55389 9.8519 3.60667 9.76354 3.59356C9.74204 3.59038 9.72726 3.55756 9.73221 3.53644C9.76178 3.4095 9.82435 3.29217 9.8629 3.16758C9.88709 3.08933 9.93531 3.00916 9.92035 2.92866C9.9002 2.82026 9.76102 2.81692 9.68518 2.85592C9.62084 2.88916 9.57179 2.9472 9.50762 2.9806C9.49485 2.9872 9.47646 2.97985 9.4657 2.97025C9.43816 2.94536 9.42514 2.9072 9.39784 2.88198C9.37382 2.85968 9.34644 2.83655 9.31418 2.82995C9.27479 2.82193 9.2312 2.82502 9.19408 2.84031C9.11546 2.87287 9.05935 2.96164 8.97469 2.97025C8.93798 2.97392 8.96159 2.89459 8.93807 2.86636C8.88137 2.7983 8.82711 2.82193 8.76042 2.85074C8.62343 2.90987 8.48804 2.97267 8.35197 3.03405C8.36541 3.06135 8.37683 3.08975 8.38607 3.11914C8.44033 3.10069 8.49635 3.07705 8.55145 3.06369C8.57682 3.05751 8.60773 3.04465 8.62982 3.05851C8.64981 3.07104 8.65778 3.10353 8.65065 3.12607C8.57631 3.36407 8.47653 3.59355 8.38951 3.8273C8.48006 3.82554 8.5706 3.82387 8.66114 3.8222C8.74304 3.6126 8.80007 3.3918 8.90674 3.19355C8.92597 3.15789 8.98166 3.14411 9.02164 3.15204C9.0491 3.15747 9.0586 3.19731 9.06347 3.2247C9.06951 3.25902 9.06431 3.29568 9.05305 3.32867C8.99602 3.49585 8.92412 3.65761 8.8597 3.8222C8.95898 3.82036 9.06347 3.82905 9.16266 3.8273C9.2585 3.60917 9.29621 3.38545 9.41355 3.17802C9.42808 3.15221 9.5051 3.14378 9.53365 3.15204C9.55272 3.15756 9.57439 3.17952 9.57028 3.19881C9.54491 3.31547 9.48007 3.42086 9.45008 3.53644C9.43622 3.59021 9.42447 3.64926 9.43967 3.70262C9.45243 3.74771 9.48637 3.7908 9.52845 3.81176C9.56431 3.82955 9.6116 3.82187 9.64864 3.8065C9.78924 3.74855 9.9196 3.66888 10.0542 3.59781C10.0778 3.74813 10.1863 3.8511 10.3932 3.80542C10.4655 3.78938 10.5049 3.74253 10.5718 3.71105C10.6056 3.81878 10.6804 3.86279 10.8006 3.81368C11.0973 3.69251 11.2713 3.4819 11.4908 3.16616C11.5261 3.17392 11.5959 3.15396 11.6313 3.15455C11.5935 3.26812 11.3595 3.67381 11.6041 3.79606C11.6724 3.83014 11.7247 3.81903 11.7999 3.80542C11.9689 3.77477 12.0732 3.70345 12.1545 3.63673C12.1956 3.71715 12.2617 3.78128 12.3572 3.81034C12.5519 3.8698 12.7744 3.76734 12.9134 3.70638C12.9876 3.83348 13.1786 3.85694 13.2903 3.81652C13.4081 3.77385 13.5145 3.69928 13.6084 3.61677C13.628 3.59957 13.6259 3.55598 13.6063 3.53894C13.588 3.52299 13.5574 3.55147 13.5378 3.566C13.4565 3.62629 13.2936 3.77853 13.2018 3.65068C13.1607 3.5933 13.1881 3.4966 13.2288 3.38695C13.2684 3.27998 13.3067 3.14161 13.3456 3.03438C13.4011 3.02987 13.4634 3.03572 13.5188 3.03121C13.5429 2.96415 13.553 2.91079 13.577 2.84373C13.5396 2.84081 13.4883 2.84465 13.4509 2.84173C13.4855 2.66218 13.56 2.4793 13.6232 2.29975C13.5381 2.30134 13.4666 2.30643 13.3814 2.30802C13.3217 2.48264 13.2747 2.65383 13.1933 2.82836C13.1376 2.83003 13.0784 2.83504 13.0228 2.83671C13.008 2.90194 12.9933 2.96716 12.9785 3.03246C13.0211 3.03087 13.0809 3.0292 13.1235 3.02753C13.0694 3.23238 13.0106 3.4171 12.8901 3.57577C12.8472 3.63222 12.773 3.66437 12.7033 3.67857C12.4901 3.72191 12.4079 3.65335 12.3741 3.55723C12.4642 3.48215 12.5536 3.44666 12.6346 3.36224C12.7653 3.22628 12.9258 2.86811 12.6062 2.8439ZM5.19529 2.04655C4.85672 2.0853 4.35512 2.12221 4.06871 2.30977C3.90014 2.42001 3.74887 2.63195 3.90022 2.84757C4.04813 3.05826 4.3122 2.96899 4.41912 2.82895C4.29691 2.813 4.19932 2.79028 4.19167 2.70318C4.15673 2.30735 4.52067 2.38919 4.86966 2.27604C4.68849 2.70227 4.52537 3.46228 4.0635 3.55606C3.72762 3.62437 3.57349 3.47681 3.49513 3.26887C3.309 3.6252 3.57517 3.78763 3.81404 3.82421C4.03486 3.85819 4.31766 3.72116 4.4738 3.55865C4.58417 3.48716 4.69453 3.40566 4.79482 3.31305C4.82128 3.28875 5.18933 3.00858 5.15531 3.24031C5.12541 3.44466 5.04394 3.59355 4.98296 3.79097C5.07351 3.79272 5.16405 3.79448 5.25459 3.79615C5.32078 3.60049 5.36958 3.39814 5.45315 3.20916C5.46776 3.17618 5.50607 3.15188 5.54201 3.14678C5.57527 3.14211 5.62382 3.15213 5.636 3.18319C5.6575 3.23814 5.62693 3.3077 5.61131 3.36449C5.58577 3.45735 5.44492 3.75974 5.62802 3.78287C5.80785 3.80558 6.00993 3.67765 6.11652 3.59155C6.13139 3.68157 6.17909 3.75982 6.27443 3.80492C6.33994 3.83581 6.42133 3.81594 6.49205 3.79991C6.54942 3.78671 6.59662 3.74613 6.64895 3.71932C6.63954 3.84976 6.76477 3.83439 6.8486 3.79481C7.03817 3.70529 7.144 3.64241 7.27334 3.59957C7.26007 3.57644 7.24823 3.5523 7.2379 3.52742C7.14467 3.55097 7.05303 3.59573 6.95762 3.58854C6.9257 3.58612 6.91713 3.52808 6.92721 3.49794C7.06101 3.09902 7.23093 2.71295 7.3827 2.32046C7.3035 2.32556 7.24269 2.32556 7.16331 2.33057C7.10091 2.49825 7.02002 2.67103 6.95762 2.83872C6.6597 2.78461 6.38235 2.86728 6.18833 3.2363C6.14693 3.31497 6.11761 3.40725 6.11215 3.49593C6.04471 3.53994 5.98188 3.58512 5.90251 3.60491C5.87294 3.61226 5.85027 3.56633 5.85547 3.53644C5.87269 3.43731 5.9073 3.34228 5.94098 3.24699C5.96391 3.18194 6.04899 2.99271 6.01741 2.92866C5.96307 2.81759 5.88344 2.81818 5.80264 2.85125C5.69883 2.89358 5.59317 2.98954 5.53681 2.97025C5.45391 2.94177 5.47742 2.81459 5.35295 2.82895C5.31364 2.83346 5.27358 2.84932 5.23897 2.86636C5.06133 2.95338 4.89267 3.07822 4.72284 3.18545C4.88587 2.87396 5.04041 2.45884 5.19529 2.04655Z" fill="#0000FF"/>
<path d="M7.80316 2.69199H7.80324C7.97123 2.69207 8.12384 2.76021 8.23437 2.87011V2.87019C8.34482 2.98009 8.41336 3.13166 8.41344 3.29859V3.29893C8.41344 3.46595 8.34482 3.61768 8.23437 3.72758H8.2342C8.12367 3.83739 7.97123 3.90554 7.80341 3.90554H7.80299C7.63501 3.90554 7.48239 3.83739 7.37194 3.72749C7.26141 3.6176 7.19287 3.46603 7.19287 3.29901V3.29868C7.19287 3.13158 7.26141 2.97984 7.37194 2.87003C7.48239 2.76021 7.63492 2.69207 7.80299 2.69199H7.80316ZM7.80324 2.76597H7.80299C7.6555 2.76606 7.52162 2.82585 7.4246 2.92239C7.32751 3.01884 7.2672 3.15204 7.2672 3.29868V3.29901C7.26729 3.44557 7.32751 3.57877 7.42452 3.67522C7.52162 3.77167 7.65558 3.83155 7.80299 3.83155H7.80341C7.95082 3.83146 8.0847 3.77175 8.18171 3.6753V3.67522C8.27872 3.57877 8.33903 3.44549 8.33903 3.29893V3.29859C8.33894 3.15195 8.2788 3.01884 8.18188 2.92239H8.18171C8.0847 2.82585 7.95073 2.76597 7.80324 2.76597Z" fill="#FF0000"/>
<path fill-rule="evenodd" clip-rule="evenodd" d="M7.80301 2.83978C8.05793 2.83978 8.26463 3.0453 8.26463 3.29875C8.26463 3.55228 8.05793 3.75771 7.80301 3.75771C7.54801 3.75771 7.34131 3.55228 7.34131 3.29875C7.34131 3.0453 7.54801 2.83978 7.80301 2.83978ZM7.80301 2.93423C8.00543 2.93423 8.16964 3.09749 8.16964 3.29875C8.16964 3.50009 8.00543 3.66326 7.80301 3.66326C7.60051 3.66326 7.43639 3.50009 7.43639 3.29875C7.43639 3.09749 7.60051 2.93423 7.80301 2.93423Z" fill="#FF0000"/>
<path fill-rule="evenodd" clip-rule="evenodd" d="M7.80312 3.02353C7.95599 3.02353 8.07996 3.14679 8.07996 3.29877C8.07996 3.45076 7.95599 3.57402 7.80312 3.57402C7.65026 3.57402 7.52637 3.45076 7.52637 3.29877C7.52637 3.14679 7.65026 3.02353 7.80312 3.02353Z" fill="#FF0000"/>
</svg>
