<svg width="26" height="6" viewBox="0 0 26 6" fill="none" xmlns="http://www.w3.org/2000/svg">
<path fill-rule="evenodd" clip-rule="evenodd" d="M9.9585 1.58461H12.1831L11.0883 5.74177H12.628L13.7228 1.58461H15.5191L15.9327 1.08966H14.4779L14.6699 0.85882H16.1284L16.3351 0.612325H14.8416L15.0336 0.285621H16.6084L16.8484 0H10.6434L9.9585 1.58461Z" fill="#ED3237"/>
<path fill-rule="evenodd" clip-rule="evenodd" d="M4.21304 5.79855H0.00195312L0.648109 4.69128L3.07027 4.70693L4.17243 0.0430908H5.57736L4.45305 4.70693L4.21304 5.79855Z" fill="#ED3237"/>
<path fill-rule="evenodd" clip-rule="evenodd" d="M10.7579 5.73976H9.39172L9.15726 5.46392C8.50557 5.8767 7.72649 6.08602 6.9511 5.96473C5.99664 5.76519 5.42248 5.15091 5.50371 4.14732C5.6311 3.44696 5.92094 2.86203 6.34925 2.37686C5.8711 1.36154 6.04648 0.665091 6.35295 0.0332031H9.65573L9.10372 1.36741C8.67541 0.451853 7.32033 0.682698 7.37387 1.90735L8.99111 3.80301C9.12957 3.62303 9.26988 3.21221 9.40834 2.7466L10.4237 3.28263C10.2705 3.77562 10.0951 4.26666 9.85511 4.67748L9.8588 4.68139L10.7579 5.73976ZM8.35049 4.5112L7.09879 3.132C5.7991 4.12971 7.11726 5.75736 8.35049 4.5112Z" fill="#ED3237"/>
<path fill-rule="evenodd" clip-rule="evenodd" d="M16.0913 3.56633C16.0913 3.57415 16.0913 3.58589 16.0894 3.6035C16.0876 3.61915 16.0857 3.63871 16.082 3.66023C16.0784 3.67979 16.0747 3.70131 16.0691 3.72479C16.0636 3.74826 16.058 3.76783 16.0488 3.78739C16.0414 3.805 16.0322 3.82065 16.0211 3.83434C16.01 3.84608 15.9971 3.85195 15.9842 3.85195H15.2476L15.146 4.38602H15.7719C15.7867 4.38602 15.7977 4.39189 15.8033 4.40167C15.8107 4.41341 15.8144 4.42906 15.8144 4.44862C15.8144 4.4584 15.8125 4.47014 15.8125 4.48579C15.8107 4.50144 15.807 4.52101 15.8033 4.54253C15.8014 4.56209 15.7977 4.58361 15.7922 4.60513C15.7867 4.62665 15.7793 4.64621 15.7719 4.66382C15.7645 4.68142 15.7534 4.69707 15.7442 4.70881C15.7331 4.71859 15.722 4.72446 15.7091 4.72446H15.0833L14.967 5.3407H15.7128C15.7257 5.3407 15.7368 5.34657 15.7424 5.36026C15.7479 5.37004 15.7516 5.38765 15.7516 5.41113C15.7516 5.41895 15.7516 5.43069 15.7497 5.4483C15.7497 5.4659 15.746 5.48547 15.7424 5.50503C15.7387 5.52655 15.735 5.54807 15.7294 5.56959C15.7239 5.59111 15.7184 5.61067 15.7091 5.63023C15.7017 5.64784 15.6925 5.66349 15.6814 5.67523C15.6704 5.68501 15.6593 5.69088 15.6464 5.69088H14.607C14.5903 5.69088 14.5756 5.68892 14.5608 5.68305C14.546 5.67914 14.535 5.66936 14.5276 5.65762C14.5183 5.64588 14.511 5.63219 14.5091 5.61458C14.5054 5.59698 14.5054 5.57546 14.5091 5.55002L14.8691 3.64262C14.8783 3.59372 14.8987 3.55655 14.9282 3.53503C14.9559 3.51351 14.9891 3.50177 15.0242 3.50177H16.0507C16.0784 3.50177 16.0913 3.52329 16.0913 3.56633ZM17.271 4.56209L17.5885 5.51872C17.5996 5.55981 17.607 5.59111 17.6088 5.61654C17.6107 5.64002 17.6033 5.65958 17.5885 5.67132C17.5737 5.68501 17.5497 5.69284 17.5165 5.69675C17.4814 5.70066 17.4353 5.70066 17.3744 5.70066C17.3301 5.70066 17.2968 5.70066 17.271 5.6987C17.2451 5.69675 17.2267 5.69284 17.2119 5.68697C17.1971 5.6811 17.1879 5.67523 17.1824 5.66545C17.175 5.65762 17.1713 5.64588 17.1657 5.63219L16.9147 4.83597L16.3848 5.63219C16.3756 5.64588 16.3664 5.65762 16.3553 5.66545C16.346 5.67523 16.3313 5.6811 16.3128 5.68697C16.2944 5.69284 16.2685 5.69675 16.239 5.6987C16.2076 5.70066 16.1688 5.70066 16.1208 5.70066C16.0654 5.70066 16.0211 5.70066 15.9897 5.69675C15.9584 5.69284 15.9362 5.68501 15.927 5.67327C15.9177 5.66153 15.9177 5.64197 15.9288 5.6185C15.938 5.59502 15.9565 5.56372 15.9842 5.52459L16.6636 4.56013L16.3756 3.67001C16.3645 3.63089 16.3571 3.59958 16.3553 3.57415C16.3534 3.55068 16.3608 3.53307 16.3756 3.52133C16.3885 3.50764 16.4125 3.49981 16.4476 3.49786C16.4808 3.49394 16.5288 3.49199 16.5879 3.49199C16.6322 3.49199 16.6691 3.49394 16.695 3.4959C16.7208 3.49786 16.7411 3.50177 16.7559 3.50764C16.7707 3.51351 16.7817 3.52133 16.7873 3.53111C16.7947 3.5409 16.8002 3.55459 16.8039 3.57024L17.0236 4.28429L17.5073 3.56046C17.5147 3.54872 17.5239 3.53698 17.535 3.5272C17.5442 3.51938 17.5571 3.51155 17.5737 3.50568C17.5922 3.50177 17.6144 3.49786 17.6421 3.4959C17.6697 3.49394 17.7067 3.49199 17.7528 3.49199C17.8119 3.49199 17.8581 3.49394 17.8913 3.49786C17.9245 3.49981 17.9448 3.50764 17.9559 3.52133C17.9651 3.53307 17.9651 3.55068 17.9559 3.57415C17.9467 3.59958 17.9282 3.63089 17.9024 3.67001L17.271 4.56209ZM19.5916 4.03975C19.5916 4.10236 19.5842 4.16887 19.5713 4.23734C19.5584 4.30581 19.5362 4.37428 19.5067 4.43884C19.4771 4.50536 19.4384 4.56796 19.3904 4.62665C19.3424 4.68534 19.2851 4.73816 19.2168 4.78511C19.1485 4.8301 19.0673 4.86727 18.9768 4.89271C18.8864 4.92009 18.7811 4.93183 18.6593 4.93183H18.4433L18.3104 5.63219C18.3085 5.64393 18.303 5.65371 18.2956 5.66349C18.2864 5.67132 18.2734 5.67914 18.255 5.68501C18.2365 5.69088 18.2144 5.69479 18.1867 5.69675C18.159 5.70066 18.1239 5.70066 18.0851 5.70066C18.0445 5.70066 18.0131 5.70066 17.9854 5.69675C17.9596 5.69479 17.9393 5.69088 17.9245 5.68501C17.9097 5.67914 17.9005 5.67132 17.895 5.66349C17.8894 5.65567 17.8876 5.64393 17.8913 5.63219L18.2642 3.66219C18.2734 3.60937 18.2937 3.56828 18.327 3.54285C18.3584 3.51546 18.3971 3.50177 18.4433 3.50177H18.8956C18.951 3.50177 19.0008 3.50373 19.0433 3.50764C19.0876 3.51155 19.1301 3.51938 19.1725 3.5272C19.2371 3.5409 19.2962 3.56242 19.3479 3.5898C19.3996 3.61915 19.4421 3.65436 19.479 3.69544C19.5159 3.73848 19.5436 3.78739 19.5621 3.84608C19.5805 3.90281 19.5916 3.96737 19.5916 4.03975ZM19.1504 4.08866C19.1504 4.03584 19.1374 3.98889 19.1134 3.94781C19.0894 3.90868 19.0507 3.88129 19.0008 3.86564C18.9768 3.85782 18.9528 3.85195 18.9251 3.84999C18.8974 3.84608 18.8661 3.84608 18.8328 3.84608H18.6482L18.5079 4.58948H18.6999C18.7608 4.58948 18.8125 4.58165 18.855 4.566C18.8993 4.55231 18.9362 4.53079 18.9694 4.50731C19.0027 4.48188 19.0304 4.45254 19.0525 4.41928C19.0765 4.38406 19.095 4.34885 19.1098 4.31168C19.1227 4.27451 19.1338 4.23734 19.1393 4.19822C19.1467 4.16105 19.1504 4.12388 19.1504 4.08866ZM21.3565 3.97911C21.3565 4.05345 21.3473 4.12388 21.3288 4.1943C21.3104 4.26669 21.2808 4.3332 21.2402 4.3958C21.1996 4.46036 21.1461 4.51709 21.0833 4.56796C21.0187 4.61882 20.9393 4.6599 20.847 4.68925C20.8987 4.71077 20.9411 4.75381 20.9762 4.81641C21.0113 4.88097 21.0408 4.96704 21.063 5.07855L21.1424 5.52264C21.1479 5.54807 21.1516 5.56959 21.1553 5.58915C21.159 5.60871 21.1608 5.62632 21.1608 5.64002C21.1608 5.6498 21.1571 5.65958 21.1498 5.6674C21.1424 5.67523 21.1313 5.6811 21.111 5.68697C21.0925 5.69284 21.0685 5.69675 21.0371 5.6987C21.0058 5.70066 20.9651 5.70066 20.9171 5.70066C20.8728 5.70066 20.8359 5.70066 20.8101 5.69675C20.7842 5.69479 20.7621 5.69088 20.7473 5.68305C20.7325 5.67719 20.7233 5.66936 20.7196 5.65958C20.7141 5.6498 20.7104 5.63806 20.7085 5.62436L20.6291 5.1392C20.6218 5.08247 20.6088 5.03356 20.5941 4.99052C20.5811 4.94748 20.5608 4.91227 20.5387 4.88292C20.5165 4.85358 20.4888 4.83206 20.4574 4.81837C20.4242 4.80467 20.3854 4.79685 20.3393 4.79685H20.2064L20.0494 5.63219C20.0494 5.64393 20.0439 5.65371 20.0347 5.66349C20.0254 5.67132 20.0125 5.67914 19.9959 5.68501C19.9774 5.69088 19.9553 5.69479 19.9276 5.69675C19.8999 5.70066 19.8648 5.70066 19.8242 5.70066C19.7836 5.70066 19.7522 5.70066 19.7264 5.69675C19.6987 5.69479 19.6784 5.69088 19.6636 5.68501C19.6488 5.67914 19.6396 5.67132 19.6341 5.66349C19.6285 5.65567 19.6267 5.64393 19.6304 5.63219L20.007 3.64262C20.0162 3.59372 20.0347 3.55655 20.0624 3.53503C20.0919 3.51351 20.127 3.50177 20.1658 3.50177H20.7196C20.8175 3.50177 20.9042 3.51155 20.9836 3.53111C21.0611 3.55068 21.1276 3.58002 21.183 3.61915C21.2402 3.65827 21.2827 3.70914 21.3122 3.76783C21.3418 3.82847 21.3565 3.8989 21.3565 3.97911ZM20.9061 4.06323C20.9061 4.03193 20.9005 4.00258 20.8895 3.9752C20.8802 3.94781 20.8636 3.92433 20.8415 3.90281C20.8193 3.88325 20.7898 3.86956 20.7547 3.85782C20.7178 3.84608 20.6753 3.84217 20.6254 3.84217H20.3873L20.2691 4.46427H20.4704C20.5498 4.46427 20.6181 4.45254 20.6734 4.42906C20.7288 4.40363 20.7731 4.37233 20.8082 4.3332C20.8415 4.29603 20.8673 4.25299 20.8821 4.20604C20.8987 4.15909 20.9061 4.11214 20.9061 4.06323ZM23.0661 3.56633C23.0661 3.57415 23.0661 3.58589 23.0642 3.6035C23.0624 3.61915 23.0587 3.63871 23.0568 3.66023C23.0532 3.67979 23.0495 3.70131 23.0439 3.72479C23.0384 3.74826 23.031 3.76783 23.0236 3.78739C23.0162 3.805 23.0052 3.82065 22.9941 3.83434C22.983 3.84608 22.9719 3.85195 22.959 3.85195H22.2224L22.1208 4.38602H22.7467C22.7615 4.38602 22.7725 4.39189 22.7781 4.40167C22.7855 4.41341 22.7873 4.42906 22.7873 4.44862C22.7873 4.4584 22.7873 4.47014 22.7855 4.48579C22.7836 4.50144 22.7818 4.52101 22.7781 4.54253C22.7762 4.56209 22.7707 4.58361 22.7652 4.60513C22.7596 4.62665 22.7541 4.64621 22.7448 4.66382C22.7375 4.68142 22.7282 4.69707 22.7171 4.70881C22.7061 4.71859 22.695 4.72446 22.6821 4.72446H22.0562L21.9399 5.3407H22.6876C22.7005 5.3407 22.7098 5.34657 22.7153 5.36026C22.7227 5.37004 22.7264 5.38765 22.7264 5.41113C22.7264 5.41895 22.7245 5.43069 22.7245 5.4483C22.7227 5.4659 22.7208 5.48547 22.7171 5.50503C22.7135 5.52655 22.7098 5.54807 22.7042 5.56959C22.6987 5.59111 22.6913 5.61067 22.6839 5.63023C22.6765 5.64784 22.6673 5.66349 22.6562 5.67523C22.6452 5.68501 22.6341 5.69088 22.6193 5.69088H21.5818C21.5651 5.69088 21.5485 5.68892 21.5356 5.68305C21.5208 5.67914 21.5098 5.66936 21.5005 5.65762C21.4913 5.64588 21.4858 5.63219 21.4821 5.61458C21.4784 5.59698 21.4802 5.57546 21.4839 5.55002L21.8439 3.64262C21.8531 3.59372 21.8716 3.55655 21.9011 3.53503C21.9307 3.51351 21.9639 3.50177 21.999 3.50177H23.0236C23.0513 3.50177 23.0661 3.52329 23.0661 3.56633ZM24.4784 3.67001C24.4784 3.67979 24.4765 3.69349 24.4747 3.71109C24.4728 3.72675 24.471 3.74631 24.4673 3.76587C24.4655 3.78543 24.4599 3.80695 24.4562 3.82847C24.4507 3.84804 24.4452 3.8676 24.4378 3.88521C24.4304 3.90281 24.423 3.91651 24.4138 3.92824C24.4045 3.93998 24.3953 3.94585 24.3861 3.94585C24.3713 3.94585 24.3528 3.93803 24.3307 3.92433C24.3085 3.91064 24.2808 3.89499 24.2476 3.87738C24.2144 3.86173 24.1775 3.84608 24.1332 3.83239C24.0907 3.81674 24.0408 3.81087 23.9855 3.81087C23.9282 3.81087 23.8802 3.81869 23.8396 3.8363C23.8008 3.85195 23.7676 3.87542 23.7418 3.90281C23.7159 3.9302 23.6975 3.9615 23.6864 3.99672C23.6735 4.02997 23.6679 4.06519 23.6679 4.1004C23.6679 4.13953 23.6772 4.1767 23.6956 4.208C23.7159 4.2393 23.7399 4.26669 23.7732 4.29407C23.8045 4.31951 23.8415 4.34494 23.8821 4.37037C23.9227 4.3958 23.9652 4.42123 24.0076 4.44862C24.0482 4.47406 24.0907 4.50536 24.1313 4.53666C24.1719 4.56991 24.2088 4.60513 24.2421 4.64817C24.2735 4.69121 24.2993 4.73816 24.3178 4.79293C24.3362 4.84771 24.3473 4.91227 24.3473 4.9827C24.3473 5.08834 24.327 5.18615 24.2864 5.2781C24.2458 5.36809 24.1885 5.44634 24.1147 5.51481C24.039 5.58133 23.9504 5.63415 23.8452 5.67132C23.7399 5.71044 23.6236 5.73001 23.4962 5.73001C23.4261 5.73001 23.3633 5.72414 23.3042 5.71044C23.247 5.70066 23.1935 5.68501 23.1492 5.6674C23.1048 5.65175 23.0661 5.63415 23.0365 5.61458C23.0052 5.59502 22.9812 5.57741 22.9664 5.56176C22.9516 5.54416 22.9442 5.51872 22.9442 5.48547C22.9442 5.47569 22.9461 5.46199 22.9479 5.44438C22.9498 5.42482 22.9535 5.40526 22.9572 5.38569C22.9608 5.36418 22.9645 5.34266 22.9701 5.32114C22.9756 5.29962 22.9812 5.2781 22.9885 5.26049C22.9959 5.24288 23.0052 5.22723 23.0144 5.2155C23.0236 5.20571 23.0328 5.19985 23.0421 5.19985C23.0605 5.19985 23.0827 5.20767 23.1067 5.22528C23.1325 5.24288 23.1639 5.26245 23.2008 5.28397C23.2378 5.30353 23.2821 5.32505 23.3338 5.34266C23.3836 5.36026 23.4445 5.37004 23.5165 5.37004C23.5793 5.37004 23.6347 5.36026 23.6827 5.34461C23.7307 5.32701 23.7695 5.30353 23.8008 5.27419C23.8341 5.24484 23.8581 5.21158 23.8747 5.17246C23.8913 5.13529 23.8987 5.09225 23.8987 5.04725C23.8987 5.00421 23.8895 4.96704 23.871 4.9377C23.8507 4.90444 23.8267 4.87705 23.7953 4.84967C23.7639 4.82228 23.727 4.79685 23.6882 4.77337C23.6476 4.74989 23.607 4.72642 23.5664 4.69903C23.5239 4.67164 23.4833 4.6423 23.4445 4.611C23.4039 4.5797 23.3688 4.54253 23.3375 4.49949C23.3061 4.45645 23.2802 4.4095 23.2618 4.35276C23.2415 4.29799 23.2322 4.23343 23.2322 4.16105C23.2322 4.05932 23.2507 3.96541 23.2895 3.87934C23.3282 3.79522 23.3818 3.72088 23.4482 3.66023C23.5165 3.59763 23.5978 3.55068 23.6919 3.51546C23.7861 3.48221 23.8913 3.4646 24.0039 3.4646C24.0575 3.4646 24.1092 3.46851 24.1572 3.47634C24.2052 3.48612 24.2495 3.4959 24.2882 3.50959C24.327 3.52133 24.3621 3.53698 24.3898 3.55263C24.4175 3.56828 24.4359 3.58198 24.447 3.59176C24.4581 3.6035 24.4655 3.61524 24.471 3.62502C24.4747 3.63871 24.4784 3.65241 24.4784 3.67001ZM25.9978 3.67001C25.9978 3.67979 25.9978 3.69349 25.9959 3.71109C25.9941 3.72675 25.9922 3.74631 25.9885 3.76587C25.9849 3.78543 25.9812 3.80695 25.9756 3.82847C25.9719 3.84804 25.9645 3.8676 25.959 3.88521C25.9516 3.90281 25.9424 3.91651 25.935 3.92824C25.9258 3.93998 25.9165 3.94585 25.9073 3.94585C25.8925 3.94585 25.8741 3.93803 25.8501 3.92433C25.8279 3.91064 25.8002 3.89499 25.7689 3.87738C25.7356 3.86173 25.6987 3.84608 25.6544 3.83239C25.6101 3.81674 25.5621 3.81087 25.5067 3.81087C25.4495 3.81087 25.3996 3.81869 25.3609 3.8363C25.3202 3.85195 25.2889 3.87542 25.263 3.90281C25.2372 3.9302 25.2187 3.9615 25.2058 3.99672C25.1947 4.02997 25.1873 4.06519 25.1873 4.1004C25.1873 4.13953 25.1984 4.1767 25.2169 4.208C25.2353 4.2393 25.2612 4.26669 25.2944 4.29407C25.3258 4.31951 25.3627 4.34494 25.4033 4.37037C25.4439 4.3958 25.4864 4.42123 25.527 4.44862C25.5695 4.47406 25.6119 4.50536 25.6525 4.53666C25.6932 4.56991 25.7301 4.60513 25.7615 4.64817C25.7947 4.69121 25.8205 4.73816 25.839 4.79293C25.8575 4.84771 25.8685 4.91227 25.8685 4.9827C25.8685 5.08834 25.8482 5.18615 25.8076 5.2781C25.767 5.36809 25.7098 5.44634 25.6359 5.51481C25.5602 5.58133 25.4716 5.63415 25.3664 5.67132C25.2612 5.71044 25.1449 5.73001 25.0156 5.73001C24.9473 5.73001 24.8845 5.72414 24.8255 5.71044C24.7664 5.70066 24.7147 5.68501 24.6704 5.6674C24.6261 5.65175 24.5873 5.63415 24.5559 5.61458C24.5264 5.59502 24.5024 5.57741 24.4876 5.56176C24.4728 5.54416 24.4655 5.51872 24.4655 5.48547C24.4655 5.47569 24.4673 5.46199 24.4692 5.44438C24.471 5.42482 24.4747 5.40526 24.4784 5.38569C24.4821 5.36418 24.4858 5.34266 24.4913 5.32114C24.4969 5.29962 24.5024 5.2781 24.5098 5.26049C24.5172 5.24288 24.5264 5.22723 24.5338 5.2155C24.543 5.20571 24.5522 5.19985 24.5633 5.19985C24.5818 5.19985 24.6021 5.20767 24.6279 5.22528C24.6538 5.24288 24.6833 5.26245 24.7221 5.28397C24.759 5.30353 24.8033 5.32505 24.855 5.34266C24.9049 5.36026 24.9658 5.37004 25.0378 5.37004C25.1005 5.37004 25.1559 5.36026 25.2039 5.34461C25.2501 5.32701 25.2907 5.30353 25.3221 5.27419C25.3553 5.24484 25.3793 5.21158 25.3941 5.17246C25.4125 5.13529 25.4199 5.09225 25.4199 5.04725C25.4199 5.00421 25.4107 4.96704 25.3904 4.9377C25.3719 4.90444 25.3479 4.87705 25.3147 4.84967C25.2852 4.82228 25.2482 4.79685 25.2095 4.77337C25.1689 4.74989 25.1282 4.72642 25.0858 4.69903C25.0452 4.67164 25.0045 4.6423 24.9639 4.611C24.9252 4.5797 24.8882 4.54253 24.8587 4.49949C24.8255 4.45645 24.8015 4.4095 24.783 4.35276C24.7627 4.29799 24.7535 4.23343 24.7535 4.16105C24.7535 4.05932 24.7719 3.96541 24.8107 3.87934C24.8495 3.79522 24.9012 3.72088 24.9695 3.66023C25.0378 3.59763 25.119 3.55068 25.2132 3.51546C25.3073 3.48221 25.4125 3.4646 25.5252 3.4646C25.5787 3.4646 25.6304 3.46851 25.6784 3.47634C25.7264 3.48612 25.7689 3.4959 25.8095 3.50959C25.8482 3.52133 25.8833 3.53698 25.911 3.55263C25.9387 3.56828 25.9572 3.58198 25.9682 3.59176C25.9793 3.6035 25.9867 3.61524 25.9922 3.62502C25.9959 3.63871 25.9978 3.65241 25.9978 3.67001Z" fill="#ED3237"/>
</svg>
