<svg width="25" height="10" viewBox="0 0 25 10" fill="none" xmlns="http://www.w3.org/2000/svg">
<path d="M7.57623 5.36484L7.49346 5.73907C7.73379 5.70646 7.9743 5.67507 8.21481 5.64525L8.49144 4.35672C8.24621 4.4188 8.00135 4.48227 7.75703 4.54767L7.57623 5.36484ZM0.44043 7.16712C1.19536 6.95141 1.95773 6.75522 2.73263 6.58014L2.83355 6.12429C2.77765 6.14557 2.72156 6.16667 2.66565 6.18812C1.91489 6.47708 1.15452 6.78382 0.44043 7.16712ZM13.8477 3.61348L13.9335 3.21309C13.8402 3.22844 13.7469 3.24413 13.6534 3.26L13.8477 3.61348ZM24.0005 2.48956C22.6944 2.48956 21.3928 2.51607 20.0953 2.58024C19.1812 2.62524 18.2689 2.68889 17.3587 2.77486C17.1413 2.79544 16.9238 2.81723 16.7066 2.84043L16.2332 4.98049C16.4528 4.96951 16.6722 4.95922 16.8919 4.94963C17.7895 4.91109 18.6876 4.88633 19.5861 4.88197C19.784 4.88092 19.9818 4.88057 20.1797 4.88162C20.8176 4.88511 22.63 4.88162 24.0491 4.879H24.0665L24.5579 2.48956C24.2277 2.48956 24.0005 2.48956 24.0005 2.48956ZM10.9545 5.35246C11.3151 5.3195 11.676 5.28829 12.0368 5.25899L11.2772 3.89355L10.9545 5.35246Z" fill="#EC2B24"/>
<path d="M2.48313 8.8093H3.02787L3.06453 8.55784H2.52143L2.57389 8.21307H3.13532L3.17199 7.96161H2.39455L2.17383 9.47057H2.99392L3.03059 9.21911H2.42087L2.48313 8.8093Z" fill="#313B97"/>
<path d="M4.38624 7.96161H4.11197L3.94715 8.22423C3.90758 8.28789 3.85875 8.36967 3.80067 8.4696C3.7974 8.45826 3.79431 8.44919 3.79141 8.44239C3.74748 8.31631 3.7237 8.2483 3.72043 8.23819L3.61697 7.96161H3.38808L3.652 8.71234L3.1875 9.47057H3.46921L3.61189 9.24439C3.68812 9.12215 3.7355 9.04123 3.75383 9.00235C3.76763 9.05257 3.7954 9.13558 3.83769 9.25137L3.91847 9.47057H4.16297L3.90413 8.75507L4.38624 7.96161Z" fill="#313B97"/>
<path d="M5.1492 8.00032C5.10509 7.97451 5.04519 7.96161 4.96932 7.96161H4.5433L4.32275 9.47057H4.5393L4.62298 8.89859H4.76094C4.85387 8.89859 4.9174 8.89527 4.95135 8.8883C5.00943 8.87661 5.05572 8.85952 5.09003 8.8372C5.12452 8.81471 5.15646 8.78192 5.18641 8.7385C5.216 8.69508 5.24123 8.63736 5.26174 8.56499C5.28225 8.49261 5.2926 8.41815 5.2926 8.34177C5.2926 8.25911 5.27971 8.18796 5.25394 8.12832C5.22816 8.06886 5.19331 8.02613 5.1492 8.00032ZM5.04211 8.5179C5.02033 8.56307 4.99056 8.59585 4.95262 8.61643C4.91468 8.63701 4.83917 8.64712 4.72572 8.64712H4.65965L4.72318 8.21307H4.87656C4.94627 8.21307 4.9911 8.21848 5.01125 8.22894C5.0314 8.23958 5.04701 8.2565 5.05826 8.27986C5.06933 8.30306 5.07496 8.3327 5.07496 8.36898C5.07496 8.42321 5.06389 8.47273 5.04211 8.5179Z" fill="#313B97"/>
<path d="M6.18195 7.99718C6.13693 7.97347 6.07413 7.96161 5.99335 7.96161H5.52377L5.30322 9.47057H5.51959L5.61108 8.84592H5.70038C5.75194 8.84592 5.78824 8.85586 5.80911 8.87574C5.84288 8.9094 5.87482 8.97497 5.90477 9.07227C5.95995 9.25276 5.9968 9.38547 6.01568 9.47057H6.24748C6.1883 9.25503 6.13439 9.08832 6.08611 8.97043C6.0616 8.91201 6.03565 8.8651 6.00788 8.82918C6.11642 8.8093 6.19774 8.75786 6.25165 8.67433C6.30538 8.59097 6.33243 8.48512 6.33243 8.35677C6.33243 8.26696 6.31863 8.1904 6.29086 8.12728C6.26327 8.06415 6.22697 8.0209 6.18195 7.99718ZM6.08756 8.49523C6.0656 8.53778 6.03528 8.569 5.99662 8.58888C5.95796 8.60876 5.87936 8.6187 5.76119 8.6187H5.64429L5.70365 8.21307H5.94634C6.01114 8.21307 6.05325 8.22127 6.07286 8.23784C6.10444 8.26539 6.12042 8.30637 6.12042 8.3613C6.12042 8.40804 6.10934 8.45268 6.08756 8.49523Z" fill="#313B97"/>
<path d="M6.41211 9.47057H7.23202L7.26887 9.21911H6.65915L6.72141 8.8093H7.26597L7.30263 8.55784H6.75953L6.81199 8.21307H7.37342L7.41009 7.96161H6.63265L6.41211 9.47057Z" fill="#313B97"/>
<path d="M7.92431 8.18068C7.98603 8.18068 8.03268 8.19986 8.06445 8.23823C8.08968 8.2691 8.10619 8.31095 8.11473 8.36309H8.3242C8.31385 8.23753 8.27755 8.13569 8.21402 8.05809C8.14595 7.97491 8.04974 7.93323 7.92559 7.93323C7.80324 7.93323 7.70994 7.97525 7.6455 8.05931C7.58107 8.14336 7.54876 8.24904 7.54876 8.37652C7.54876 8.44959 7.55965 8.51324 7.58143 8.56764C7.60321 8.62223 7.63316 8.66652 7.67128 8.70053C7.7094 8.73453 7.76984 8.77726 7.85243 8.82818C7.93521 8.8791 7.98585 8.91607 8.00418 8.93874C8.02016 8.9574 8.0305 8.9792 8.03686 9.00291C8.04085 9.01843 8.04357 9.03483 8.04357 9.05226C8.04357 9.10406 8.02742 9.14818 7.99547 9.18462C7.96334 9.22124 7.91161 9.23938 7.83973 9.23938C7.75333 9.23938 7.69415 9.21253 7.6622 9.15881C7.64478 9.13021 7.63389 9.07825 7.62953 9.00291H7.42188C7.42188 9.09586 7.43404 9.17904 7.45963 9.25141C7.48704 9.32919 7.53405 9.38988 7.60067 9.43365C7.6671 9.47724 7.74588 9.49904 7.83664 9.49904C7.96842 9.49904 8.07116 9.45178 8.14486 9.35709C8.21874 9.26257 8.25558 9.14835 8.25558 9.01477C8.25558 9.01076 8.25504 9.0071 8.25486 9.00291C8.25304 8.90055 8.2289 8.8158 8.18098 8.74953C8.14776 8.70262 8.06989 8.64176 7.94773 8.56677C7.86659 8.51655 7.81432 8.47696 7.79054 8.44802C7.76694 8.41994 7.75514 8.38402 7.75514 8.34059C7.75514 8.29456 7.76821 8.25637 7.79417 8.22602C7.82012 8.19585 7.86351 8.18068 7.92431 8.18068ZM9.1619 8.74953C9.1285 8.70262 9.05081 8.64176 8.92865 8.56677C8.84751 8.51655 8.79523 8.47696 8.77146 8.44802C8.75203 8.425 8.74114 8.3964 8.73751 8.36309C8.73679 8.35577 8.73606 8.34844 8.73606 8.34059C8.73606 8.29456 8.74895 8.25637 8.77509 8.22602C8.80104 8.19585 8.84443 8.18068 8.90523 8.18068C8.96695 8.18068 9.0136 8.19986 9.04537 8.23823C9.0706 8.2691 9.08711 8.31095 9.09565 8.36309H9.30512C9.29495 8.23753 9.25847 8.13569 9.19494 8.05809C9.12687 7.97491 9.03066 7.93323 8.9065 7.93323C8.78416 7.93323 8.69086 7.97525 8.62642 8.05931C8.56416 8.1404 8.53222 8.24172 8.53004 8.36309C8.53004 8.36762 8.52967 8.37198 8.52967 8.37652C8.52967 8.44959 8.54038 8.51324 8.56235 8.56764C8.58413 8.62223 8.61408 8.66652 8.6522 8.70053C8.69032 8.73453 8.75076 8.77726 8.83335 8.82818C8.91612 8.8791 8.96677 8.91607 8.9851 8.93874C9.00089 8.9574 9.01142 8.9792 9.01777 9.00291C9.02177 9.01843 9.02449 9.03483 9.02449 9.05226C9.02449 9.10406 9.00834 9.14818 8.97639 9.18462C8.94426 9.22124 8.89235 9.23938 8.82065 9.23938C8.73424 9.23938 8.67507 9.21253 8.64294 9.15881C8.6257 9.13021 8.61481 9.07825 8.61045 9.00291H8.40279C8.40279 9.09586 8.41496 9.17904 8.44055 9.25141C8.46796 9.32919 8.51497 9.38988 8.58159 9.43365C8.64802 9.47724 8.7268 9.49904 8.81756 9.49904C8.94934 9.49904 9.05208 9.45178 9.12578 9.35709C9.19965 9.26257 9.2365 9.14835 9.2365 9.01477C9.2365 9.01076 9.23596 9.0071 9.23578 9.00291C9.23396 8.90055 9.20982 8.8158 9.1619 8.74953Z" fill="#313B97"/>
<path d="M17.2689 7.96161L17.12 8.97165L16.8319 7.96161H16.6297L16.4092 9.47057H16.6112L16.7608 8.45652L17.0481 9.47057H17.2503L17.4709 7.96161H17.2689Z" fill="#313B97"/>
<path d="M18.03 7.96161L17.436 9.47057H17.6615L17.7887 9.13784H18.2067L18.2412 9.47057H18.4465L18.2766 7.96161H18.03ZM17.8851 8.88655L18.1182 8.27795L18.181 8.88655H17.8851Z" fill="#313B97"/>
<path d="M19.4462 7.96161H18.6177L18.584 8.21307H18.8927L18.709 9.47057H18.9254L19.1093 8.21307H19.4124L19.4462 7.96161Z" fill="#313B97"/>
<path d="M19.4512 9.47057H19.6679L19.8884 7.96161H19.6719L19.4512 9.47057Z" fill="#313B97"/>
<path d="M20.571 7.93323C20.4739 7.93323 20.3873 7.96165 20.3115 8.01833C20.2354 8.07518 20.1722 8.15243 20.1223 8.25009C20.0724 8.34792 20.0352 8.46301 20.0109 8.5959C19.9922 8.69512 19.9829 8.78929 19.9829 8.87875C19.9829 8.97501 19.9967 9.07057 20.0245 9.16509C20.0522 9.25978 20.0993 9.33896 20.1659 9.40313C20.2323 9.46713 20.3144 9.49904 20.4126 9.49904C20.5255 9.49904 20.6266 9.45876 20.7159 9.37837C20.8054 9.2978 20.8762 9.18288 20.9284 9.0336C20.9803 8.88433 21.0065 8.72982 21.0065 8.57009C21.0065 8.37809 20.9664 8.22393 20.8863 8.10761C20.8061 7.99147 20.7012 7.93323 20.571 7.93323ZM20.7411 8.90421C20.7057 9.01686 20.6607 9.10092 20.6066 9.15637C20.5521 9.21183 20.4955 9.23938 20.4367 9.23938C20.3643 9.23938 20.306 9.20433 20.2615 9.13405C20.2171 9.06377 20.1949 8.97675 20.1949 8.87265C20.1949 8.70314 20.2283 8.54759 20.2951 8.40564C20.3621 8.26386 20.4489 8.19289 20.5554 8.19289C20.6249 8.19289 20.6821 8.22672 20.7271 8.29456C20.772 8.36239 20.7943 8.45586 20.7943 8.57514C20.7943 8.68187 20.7767 8.79173 20.7411 8.90421Z" fill="#313B97"/>
<path d="M21.7725 8.97165L21.4845 7.96161H21.2822L21.0615 9.47057H21.2637L21.4133 8.45652L21.7006 9.47057H21.9029L22.1234 7.96161H21.9214L21.7725 8.97165Z" fill="#313B97"/>
<path d="M22.9114 8.74953C22.8781 8.70262 22.8004 8.64176 22.6782 8.56677C22.5971 8.51655 22.5446 8.47696 22.521 8.44802C22.5016 8.425 22.4907 8.3964 22.4871 8.36309C22.4863 8.35577 22.4856 8.34844 22.4856 8.34059C22.4856 8.29456 22.4985 8.25637 22.5245 8.22602C22.5506 8.19585 22.594 8.18068 22.6548 8.18068C22.7165 8.18068 22.7631 8.19986 22.7949 8.23823C22.8201 8.2691 22.8367 8.31095 22.8452 8.36309H23.0547C23.0445 8.23753 23.008 8.13569 22.9445 8.05809C22.8764 7.97491 22.7802 7.93323 22.6559 7.93323C22.5337 7.93323 22.4404 7.97525 22.3758 8.05931C22.3137 8.1404 22.2818 8.24172 22.2796 8.36309C22.2794 8.36762 22.279 8.37198 22.279 8.37652C22.279 8.44959 22.2901 8.51324 22.3119 8.56764C22.3337 8.62223 22.3636 8.66652 22.4017 8.70053C22.4399 8.73453 22.5001 8.77726 22.5829 8.82818C22.6657 8.8791 22.7161 8.91607 22.7347 8.93874C22.7506 8.9574 22.761 8.9792 22.7671 9.00291C22.7713 9.01843 22.7739 9.03483 22.7739 9.05226C22.7739 9.10406 22.7579 9.14818 22.7259 9.18462C22.6938 9.22124 22.6419 9.23938 22.5702 9.23938C22.4838 9.23938 22.4244 9.21253 22.3925 9.15881C22.3752 9.13021 22.3644 9.07825 22.3598 9.00291H22.1523C22.1523 9.09586 22.1645 9.17904 22.1901 9.25141C22.2175 9.32919 22.2645 9.38988 22.331 9.43365C22.3976 9.47724 22.4762 9.49904 22.5671 9.49904C22.6987 9.49904 22.8014 9.45178 22.8753 9.35709C22.9492 9.26257 22.9861 9.14835 22.9861 9.01477C22.9861 9.01076 22.9853 9.0071 22.9853 9.00291C22.9833 8.90055 22.9592 8.8158 22.9114 8.74953Z" fill="#313B97"/>
<path d="M10.2209 7.96161L9.62695 9.47057H9.8524L9.97982 9.13784H10.3977L10.432 9.47057H10.6375L10.4676 7.96161H10.2209ZM10.076 8.88655L10.3091 8.27795L10.3719 8.88655H10.076Z" fill="#313B97"/>
<path d="M11.4264 9.1616C11.3796 9.21357 11.328 9.23938 11.2717 9.23938C11.2113 9.23938 11.1606 9.20642 11.12 9.14015C11.0795 9.07406 11.0592 8.98007 11.0592 8.85887C11.0592 8.74779 11.0748 8.63653 11.106 8.52527C11.1374 8.41384 11.1792 8.33205 11.2316 8.27956C11.2839 8.22724 11.3402 8.20091 11.4004 8.20091C11.4553 8.20091 11.4994 8.22079 11.5324 8.26038C11.5594 8.29299 11.5789 8.34269 11.5914 8.40773H11.8039C11.79 8.26404 11.7491 8.14947 11.6812 8.06471C11.6108 7.977 11.5184 7.93323 11.4044 7.93323C11.3026 7.93323 11.2088 7.97107 11.1225 8.04675C11.0361 8.12244 10.9686 8.23178 10.9201 8.37442C10.8715 8.51725 10.8472 8.67472 10.8472 8.84666C10.8472 9.05872 10.8833 9.22037 10.9559 9.33181C11.0283 9.44324 11.1291 9.49904 11.2579 9.49904C11.3723 9.49904 11.4721 9.4544 11.5573 9.36511C11.6426 9.276 11.7065 9.14713 11.7491 8.97815L11.7261 8.97327H11.5199C11.4972 9.05383 11.4665 9.11731 11.4264 9.1616Z" fill="#313B97"/>
<path d="M12.7117 7.99718C12.6667 7.97347 12.6041 7.96161 12.5233 7.96161H12.0536L11.833 9.47057H12.0496L12.1409 8.84592H12.2302C12.2819 8.84592 12.318 8.85586 12.3389 8.87574C12.3727 8.9094 12.4046 8.97497 12.4346 9.07227C12.4896 9.25276 12.5268 9.38547 12.5455 9.47057H12.7774C12.7179 9.25503 12.6642 9.08832 12.6157 8.97043C12.5914 8.91201 12.5654 8.8651 12.5377 8.82918C12.6462 8.8093 12.7275 8.75786 12.7814 8.67433C12.8353 8.59097 12.8622 8.48512 12.8622 8.35677C12.8622 8.26696 12.8484 8.1904 12.8206 8.12728C12.793 8.06415 12.7567 8.0209 12.7117 7.99718ZM12.6172 8.49523C12.5954 8.53778 12.5651 8.569 12.5264 8.58888C12.4877 8.60876 12.4091 8.6187 12.291 8.6187H12.1741L12.2334 8.21307H12.4761C12.5411 8.21307 12.5832 8.22127 12.6026 8.23784C12.6342 8.26539 12.65 8.30637 12.65 8.3613C12.65 8.40804 12.6391 8.45268 12.6172 8.49523Z" fill="#313B97"/>
<path d="M13.5483 7.93323C13.4511 7.93323 13.3644 7.96165 13.2885 8.01833C13.2125 8.07518 13.1495 8.15243 13.0994 8.25009C13.0494 8.34792 13.0122 8.46301 12.9879 8.5959C12.9694 8.69512 12.96 8.78929 12.96 8.87875C12.96 8.97501 12.9738 9.07057 13.0015 9.16509C13.0293 9.25978 13.0763 9.33896 13.1429 9.40313C13.2094 9.46713 13.2916 9.49904 13.3896 9.49904C13.5023 9.49904 13.6036 9.45876 13.6931 9.37837C13.7824 9.2978 13.8532 9.18288 13.9053 9.0336C13.9574 8.88433 13.9835 8.72982 13.9835 8.57009C13.9835 8.37809 13.9434 8.22393 13.8634 8.10761C13.7833 7.99147 13.6782 7.93323 13.5483 7.93323ZM13.7182 8.90421C13.6828 9.01686 13.6379 9.10092 13.5835 9.15637C13.5292 9.21183 13.4727 9.23938 13.4138 9.23938C13.3413 9.23938 13.2831 9.20433 13.2386 9.13405C13.1943 9.06377 13.172 8.97675 13.172 8.87265C13.172 8.70314 13.2054 8.54759 13.2724 8.40564C13.3391 8.26386 13.4259 8.19289 13.5326 8.19289C13.602 8.19289 13.6592 8.22672 13.7042 8.29456C13.749 8.36239 13.7713 8.45586 13.7713 8.57514C13.7713 8.68187 13.7537 8.79173 13.7182 8.90421Z" fill="#313B97"/>
<path d="M14.57 8.18068C14.6317 8.18068 14.6786 8.19986 14.7101 8.23823C14.7354 8.2691 14.7519 8.31095 14.7604 8.36309H14.9697C14.9597 8.23753 14.9232 8.13569 14.8597 8.05809C14.7915 7.97491 14.6954 7.93323 14.5713 7.93323C14.4489 7.93323 14.3556 7.97525 14.2912 8.05931C14.2289 8.1404 14.197 8.24172 14.1948 8.36309C14.1948 8.36762 14.1944 8.37198 14.1944 8.37652C14.1944 8.44959 14.2052 8.51324 14.2271 8.56764C14.2491 8.62223 14.2789 8.66652 14.317 8.70053C14.3551 8.73453 14.4155 8.77726 14.4981 8.82818C14.5809 8.8791 14.6314 8.91607 14.6499 8.93874C14.6657 8.9574 14.6764 8.9792 14.6825 9.00291C14.6865 9.01843 14.6893 9.03483 14.6893 9.05226C14.6893 9.10406 14.6731 9.14818 14.6412 9.18462C14.6092 9.22124 14.5571 9.23938 14.4854 9.23938C14.399 9.23938 14.3398 9.21253 14.3077 9.15881C14.2905 9.13021 14.2796 9.07825 14.275 9.00291H14.0674C14.0674 9.09586 14.0797 9.17904 14.1053 9.25141C14.1327 9.32919 14.1797 9.38988 14.2464 9.43365C14.313 9.47724 14.3916 9.49904 14.4823 9.49904C14.6139 9.49904 14.7169 9.45178 14.7905 9.35709C14.8644 9.26257 14.9013 9.14835 14.9013 9.01477C14.9013 9.01076 14.9005 9.0071 14.9005 9.00291C14.8987 8.90055 14.8746 8.8158 14.8267 8.74953C14.7933 8.70262 14.7156 8.64176 14.5934 8.56677C14.5125 8.51655 14.46 8.47696 14.4362 8.44802C14.4168 8.425 14.4059 8.3964 14.4023 8.36309C14.4016 8.35577 14.4008 8.34844 14.4008 8.34059C14.4008 8.29456 14.4137 8.25637 14.4397 8.22602C14.4658 8.19585 14.5092 8.18068 14.57 8.18068ZM15.8076 8.74953C15.7742 8.70262 15.6965 8.64176 15.5743 8.56677C15.4932 8.51655 15.4407 8.47696 15.4171 8.44802C15.3977 8.425 15.3868 8.3964 15.3832 8.36309C15.3825 8.35577 15.3817 8.34844 15.3817 8.34059C15.3817 8.29456 15.3946 8.25637 15.4206 8.22602C15.4467 8.19585 15.4901 8.18068 15.5509 8.18068C15.6126 8.18068 15.6593 8.19986 15.6911 8.23823C15.7163 8.2691 15.7326 8.31095 15.7413 8.36309H15.9508C15.9406 8.23753 15.9042 8.13569 15.8406 8.05809C15.7724 7.97491 15.6764 7.93323 15.5522 7.93323C15.4299 7.93323 15.3366 7.97525 15.2719 8.05931C15.2099 8.1404 15.1779 8.24172 15.1757 8.36309C15.1755 8.36762 15.1752 8.37198 15.1752 8.37652C15.1752 8.44959 15.1863 8.51324 15.208 8.56764C15.23 8.62223 15.2598 8.66652 15.2979 8.70053C15.3358 8.73453 15.3963 8.77726 15.479 8.82818C15.5618 8.8791 15.6125 8.91607 15.6308 8.93874C15.6468 8.9574 15.6571 8.9792 15.6633 9.00291C15.6675 9.01843 15.67 9.03483 15.67 9.05226C15.67 9.10406 15.654 9.14818 15.6221 9.18462C15.5899 9.22124 15.538 9.23938 15.4663 9.23938C15.3799 9.23938 15.3206 9.21253 15.2886 9.15881C15.2714 9.13021 15.2605 9.07825 15.256 9.00291H15.0485C15.0485 9.09586 15.0606 9.17904 15.0862 9.25141C15.1136 9.32919 15.1607 9.38988 15.2271 9.43365C15.2937 9.47724 15.3723 9.49904 15.4632 9.49904C15.595 9.49904 15.6978 9.45178 15.7715 9.35709C15.8453 9.26257 15.8822 9.14835 15.8822 9.01477C15.8822 9.01076 15.8815 9.0071 15.8815 9.00291C15.8796 8.90055 15.8553 8.8158 15.8076 8.74953Z" fill="#313B97"/>
<path d="M19.5864 4.88197C18.6878 4.88633 17.7897 4.91109 16.8921 4.94963L16.416 7.16712H21.9234L22.2964 5.42902L19.4653 5.42937L19.5864 4.88197ZM5.9615 0.395011C5.96658 0.371643 5.97057 0.352984 5.97348 0.339905C5.97057 0.353158 5.96658 0.371469 5.9615 0.395011ZM5.97856 0.339905C5.97856 0.339905 5.97783 0.343218 5.97656 0.349147C5.97584 0.352984 5.97475 0.357867 5.97348 0.364144C5.97057 0.377223 5.96658 0.395883 5.9615 0.419076C5.95315 0.458662 5.94135 0.51307 5.92737 0.578465C5.78978 1.21933 5.40805 2.99703 5.21691 3.88744C5.20675 3.93488 5.19713 3.97969 5.18805 4.02172C5.18878 4.01893 5.18932 4.01666 5.18987 4.01387C5.18896 4.01806 5.18805 4.02189 5.18733 4.02591C5.18696 4.02713 5.18678 4.02817 5.18642 4.02957C5.17299 4.09235 5.16064 4.14954 5.15011 4.19855C5.14812 4.20796 5.1463 4.21686 5.14431 4.22575C5.14231 4.23534 5.14031 4.24459 5.13832 4.25348C5.13469 4.27057 5.13124 4.28644 5.12815 4.30091C5.12761 4.30353 5.12706 4.30632 5.12652 4.30893C5.12198 4.32951 5.11835 4.3473 5.11508 4.36195C5.10964 4.38758 5.10601 4.40397 5.1051 4.40886C5.02505 4.78152 4.91178 5.0349 4.49956 5.13029H3.94902L3.05359 5.13047L2.83377 6.12429L2.73285 6.58014L2.67985 6.81975L2.61505 7.11306L2.60742 7.14742L2.61377 7.14759L2.60851 7.1727H4.29081V7.16712H5.40442C5.42094 7.16468 5.43764 7.16259 5.45397 7.16032H5.45416C6.58174 6.98942 7.22613 6.43627 7.46682 5.86027L7.49368 5.73907L7.57645 5.36484L7.75725 4.54767L8.68788 0.339905H5.97856ZM20.5909 0.340602V0.339905H17.8817L17.359 2.77486C18.2691 2.68889 19.1814 2.62524 20.0955 2.58024L20.2041 2.08935H23.0134L23.389 0.340254L20.5909 0.340602ZM17.2599 0.339905H14.5505L13.9337 3.21309L13.8479 3.61348L13.6536 3.26L12.0596 0.356995L12.0501 0.339905H9.35405L8.49166 4.35672L8.21503 5.64526L7.88848 7.16712H10.5533L10.9547 5.35246L11.2774 3.89355L12.0371 5.25899L13.0888 7.14881L13.0989 7.16712H15.7498L16.2334 4.98049L16.7068 2.84043L17.2599 0.339905Z" fill="#313B97"/>
</svg>
