<svg width="25" height="7" viewBox="0 0 25 7" fill="none" xmlns="http://www.w3.org/2000/svg">
<path d="M18.1057 3.98979H18.9563V6.91503H18.1057V3.98979ZM16.0119 6.91503V4.8979C16.0119 4.73277 16.009 4.5745 16.0032 4.42207C15.9974 4.27048 15.9896 4.1268 15.9779 3.98979H16.7578L16.7889 4.51332C16.8627 4.33367 16.9811 4.1977 17.1434 4.10541C17.3045 4.01319 17.5065 3.96756 17.7474 3.96756H17.7727L17.7697 4.73575C17.7183 4.7318 17.6804 4.72894 17.6551 4.727C17.6288 4.72499 17.6056 4.72402 17.5852 4.72402C17.3628 4.72402 17.189 4.77839 17.0637 4.8863C16.9374 4.99408 16.8743 5.14457 16.8743 5.33589V6.91503H16.0119ZM14.7256 3.98979H15.5764V6.91503H14.7256V3.98979ZM13.3471 6.91503L13.3189 6.49747C13.2141 6.65476 13.0878 6.7733 12.9402 6.85295C12.7926 6.93253 12.6256 6.97246 12.439 6.97246C12.0846 6.97246 11.7972 6.8335 11.5757 6.55573C11.3552 6.27796 11.2446 5.9099 11.2446 5.45345C11.2446 4.99408 11.3524 4.62596 11.569 4.35013C11.7855 4.07437 12.0719 3.93645 12.4284 3.93645C12.6217 3.93645 12.7907 3.9743 12.9344 4.04909C13.0791 4.12388 13.2034 4.23847 13.3073 4.39187V2.71855H14.1523V6.32656C14.1523 6.4742 14.1542 6.59455 14.159 6.68587C14.1639 6.77809 14.1716 6.85489 14.1804 6.91503H13.3471ZM12.1069 5.45825C12.1069 5.76032 12.1594 5.99442 12.2633 6.16046C12.3672 6.32656 12.5139 6.40907 12.7013 6.40907C12.8926 6.40907 13.0451 6.32456 13.1568 6.15462C13.2685 5.98469 13.3248 5.75255 13.3248 5.45825C13.3248 5.16304 13.2685 4.92901 13.1568 4.75902C13.0451 4.58811 12.8926 4.50263 12.7013 4.50263C12.5139 4.50263 12.3672 4.5861 12.2633 4.75422C12.1594 4.92221 12.1069 5.15721 12.1069 5.45825ZM8.08642 6.91503V4.55117C8.08642 4.4677 8.08447 4.38027 8.07961 4.28895C8.07482 4.1977 8.06704 4.0977 8.05829 3.98979H8.86822L8.88572 4.42881C8.99544 4.25208 9.12655 4.12284 9.27716 4.04131C9.42765 3.95978 9.61216 3.91895 9.8307 3.91895C10.1531 3.91895 10.392 4.01027 10.5483 4.19381C10.7047 4.37632 10.7834 4.65603 10.7834 5.03186V6.91503H9.94717V5.14852C9.94717 4.92998 9.90932 4.7736 9.83453 4.67846C9.7598 4.58422 9.63835 4.53665 9.46939 4.53665C9.30626 4.53665 9.17418 4.58909 9.07509 4.69492C8.97502 4.79985 8.92551 4.9397 8.92551 5.1145V6.91503H8.08642ZM0.0223593 6.91503V4.55117C0.0223593 4.44624 0.0203502 4.34819 0.0165264 4.25596C0.0125731 4.16367 0.006805 4.07527 0 3.98979H0.805064L0.827424 4.42881C0.937146 4.25208 1.06728 4.12284 1.21881 4.04131C1.36936 3.95978 1.55387 3.91895 1.77144 3.91895C1.99186 3.91895 2.17734 3.96756 2.32984 4.06562C2.4813 4.16367 2.59206 4.30541 2.66199 4.49103C2.75719 4.29381 2.88143 4.14909 3.03484 4.05687C3.18837 3.96458 3.38254 3.91895 3.61858 3.91895C3.941 3.91895 4.18093 4.01027 4.33822 4.19381C4.49558 4.37632 4.57419 4.65603 4.57419 5.03186V6.91503H3.72927V5.14852C3.72927 4.92998 3.69142 4.7736 3.61663 4.67846C3.54178 4.58422 3.42045 4.53665 3.2515 4.53665C3.08837 4.53665 2.95726 4.58909 2.86005 4.69492C2.76199 4.79985 2.71345 4.9397 2.71345 5.1145V6.91503H1.86852V5.14852C1.86852 4.93193 1.83165 4.77651 1.75776 4.68034C1.68401 4.58422 1.56457 4.53665 1.39943 4.53665C1.23631 4.53665 1.10714 4.58908 1.01103 4.69304C0.914852 4.7979 0.867217 4.93776 0.867217 5.1145V6.91503H0.0223593ZM6.86016 6.60946C6.68984 6.75839 6.35633 6.91808 6.12716 6.96954C6.03921 6.99015 5.94336 7 5.83973 7C5.59391 7 5.3882 6.91328 5.22248 6.74089C5.05677 6.56753 4.97426 6.34685 4.97426 6.07873C4.97426 5.86337 5.01671 5.68832 5.10071 5.55248C5.18554 5.4158 5.30492 5.30854 5.45962 5.22999C5.6127 5.15222 5.80357 5.0959 6.03059 5.06284C6.25756 5.02979 6.49307 5.00477 6.73656 4.98961V4.97354C6.73656 4.27398 5.73889 4.36109 5.31224 4.66005L5.16461 4.10898C5.49799 3.95246 5.82612 3.87294 6.2339 3.87294C6.94914 3.87294 7.55329 4.21585 7.55329 5.03549V6.92132H6.86016V6.60946ZM6.79321 6.03881V5.47477C6.66437 5.48722 6.52367 5.50368 6.37298 5.52442C6.22243 5.54606 6.10804 5.57088 6.03001 5.59875C5.93474 5.63278 5.86125 5.68346 5.81134 5.74846C5.76047 5.8145 5.73506 5.90025 5.73506 6.00757C5.73506 6.74841 6.60021 6.50797 6.79321 6.03881Z" fill="#1D4996"/>
<path fill-rule="evenodd" clip-rule="evenodd" d="M9.44238 2.12634C9.70344 2.41798 10.1891 3.20885 10.764 3.15999C12.111 3.04553 12.8782 1.58887 14.5413 1.69283C15.2244 1.73554 15.5461 2.88144 16.2236 2.98014C17.2914 3.13575 18.3144 1.49386 20.0548 1.5881C20.7702 1.62679 21.0658 2.82888 21.779 2.89829C22.4439 2.96297 23.4852 2.02044 24.4004 1.53184C24.1674 1.13936 23.7344 0.526452 23.2734 0.495473C22.3659 0.434422 21.6399 1.5938 20.8417 1.3914C20.3772 1.27364 19.8481 -0.00252382 19.0828 3.74952e-06C17.6662 0.00467004 16.6885 1.40728 15.4361 1.5181C14.7254 1.58097 14.3837 0.000198179 13.4319 0.145501C12.1294 0.344402 10.7983 1.41765 9.44238 2.12634Z" fill="url(#paint0_linear_140_786)"/>
<defs>
<linearGradient id="paint0_linear_140_786" x1="10.3867" y1="4.3077" x2="23.4562" y2="-1.10124" gradientUnits="userSpaceOnUse">
<stop stop-color="#F6AD02"/>
<stop offset="0.2" stop-color="#FFF000"/>
<stop offset="0.411765" stop-color="#F6AD02"/>
<stop offset="0.658824" stop-color="#FFF000"/>
<stop offset="0.788235" stop-color="#F6AD02"/>
<stop offset="1" stop-color="#FFF000"/>
</linearGradient>
</defs>
</svg>
