<svg width="27" height="27" viewBox="0 0 27 27" fill="none" xmlns="http://www.w3.org/2000/svg">
<path d="M22.697 7.425C22.3595 7.0875 21.8532 7.17187 21.5157 7.50937C21.1782 7.84687 21.2626 8.35312 21.6001 8.69062C21.6001 8.69062 23.6251 10.5469 23.6251 13.1625V17.7187H22.1063L22.6126 14.5125C23.0345 12.0656 22.1063 9.53437 20.1657 8.01562L19.997 7.84687C17.3813 5.7375 13.8376 5.31562 10.7157 6.66562C9.4501 7.25625 8.52197 8.26875 8.01572 9.61875L7.00322 12.5719C9.87197 13.2469 12.6563 14.175 15.3563 15.1875C15.7782 15.3562 16.0313 15.8625 15.8626 16.2844C15.6938 16.6219 15.4407 16.7906 15.1032 16.7906C15.0188 16.7906 14.9345 16.7906 14.7657 16.7062C11.9813 15.6094 9.02822 14.6812 6.15947 14.0062L2.10947 16.875C1.77197 17.1281 1.6876 17.55 1.85635 17.8875C2.0251 18.225 2.44697 18.4781 2.78447 18.3937C4.21885 18.1406 5.7376 18.3937 7.00322 19.1531L10.547 21.4312C11.8126 22.275 13.247 22.6125 14.6813 22.6125C16.7063 22.6125 18.647 21.8531 20.0813 20.4187L21.2626 19.2375H24.4688C24.9751 19.2375 25.3126 18.9 25.3126 18.3937V13.0781C25.3126 9.7875 22.7813 7.59375 22.697 7.425Z" fill="#29AAE3"/>
</svg>
