<svg width="19" height="19" viewBox="0 0 19 19" fill="none" xmlns="http://www.w3.org/2000/svg">
<path fill-rule="evenodd" clip-rule="evenodd" d="M8.11438 11.0428C9.80846 11.0428 11.1818 11.173 11.1818 11.3335C11.1818 11.494 9.80846 11.6241 8.11438 11.6241C6.4203 11.6241 5.04688 11.494 5.04688 11.3335C5.04688 11.173 6.4203 11.0428 8.11438 11.0428Z" fill="#CAC9C9"/>
<path fill-rule="evenodd" clip-rule="evenodd" d="M7.94623 2.42852L13.7535 4.89356C13.9205 4.96454 13.9992 5.15917 13.9283 5.32629L11.4633 11.1334C11.3923 11.3005 11.1977 11.3792 11.0305 11.3082L5.22343 8.84321C5.05631 8.77236 4.97761 8.57759 5.04859 8.4106L7.51362 2.60336C7.58448 2.43637 7.77924 2.35767 7.94623 2.42852Z" fill="#921D26"/>
<path fill-rule="evenodd" clip-rule="evenodd" d="M13.6084 5.20374C13.6208 5.23424 13.6215 5.26949 13.6078 5.30199L11.2232 10.9197C11.1956 10.9848 11.1197 11.0155 11.0546 10.9878L5.43703 8.60323C5.4044 8.58941 5.38049 8.56363 5.36816 8.53312L13.6084 5.20374Z" fill="#70161E"/>
<path fill-rule="evenodd" clip-rule="evenodd" d="M7.95094 2.93969L13.3826 5.24532C13.4156 5.25939 13.4312 5.29787 13.4172 5.33075L11.1116 10.7625C11.0975 10.7955 11.059 10.8111 11.026 10.797L5.59437 8.4914C5.56137 8.47745 5.5458 8.43897 5.55987 8.40597L7.86551 2.9743C7.87946 2.9413 7.91794 2.92574 7.95094 2.93969Z" fill="#D5232B"/>
<path fill-rule="evenodd" clip-rule="evenodd" d="M13.4177 5.28094C13.4239 5.29651 13.4243 5.31432 13.4172 5.33076L11.1117 10.7625C11.0976 10.7955 11.0591 10.8111 11.0261 10.797L5.59444 8.4914C5.578 8.48443 5.5658 8.47135 5.55957 8.45579L13.4177 5.28094Z" fill="#A11F24"/>
<path fill-rule="evenodd" clip-rule="evenodd" d="M12.4199 5.44299L9.04921 7.14218L8.71436 5.63639L12.4199 5.44299Z" fill="white"/>
<path fill-rule="evenodd" clip-rule="evenodd" d="M6.64062 8.35617L10.0112 6.6571L10.3461 8.1629L6.64062 8.35617Z" fill="#E6E6E6"/>
<path fill-rule="evenodd" clip-rule="evenodd" d="M9.04932 7.14214L10.0115 6.6571L10.0825 6.9759L9.04932 7.14214Z" fill="#B3B3B3"/>
<path fill-rule="evenodd" clip-rule="evenodd" d="M4.46595 12.7926V13.4143H4.32249C4.32249 13.4143 4.07742 13.3784 4.07742 13.486C4.07742 13.5936 4.18501 13.6294 4.33444 13.749C4.48388 13.8685 4.71699 14.1435 4.71699 14.4603C4.71699 14.7771 4.50779 15.1835 3.85028 15.1835C3.19277 15.1835 3.24657 15.1118 3.24657 15.1118V14.4125C3.24657 14.4125 3.46773 14.4842 3.67096 14.4842C3.87419 14.4842 3.91005 14.4184 3.91005 14.3527C3.91005 14.2869 3.22266 13.8689 3.22266 13.4505C3.22266 13.2846 3.2645 12.7149 4.01167 12.7149C4.30505 12.7206 4.46595 12.7926 4.46595 12.7926Z" fill="#D5232B"/>
<path fill-rule="evenodd" clip-rule="evenodd" d="M4.95654 12.7149H5.71504V15.1835H4.95654V12.7149Z" fill="#D5232B"/>
<path fill-rule="evenodd" clip-rule="evenodd" d="M9.03881 14.5559H9.74949V15.1835H8.32812V12.7149H9.74949V13.3425H9.03881V13.6354H9.66045V14.263H9.03881V14.5559Z" fill="#D5232B"/>
<path fill-rule="evenodd" clip-rule="evenodd" d="M10.0732 12.7149H11.0108C11.5352 12.7149 11.9642 13.1439 11.9642 13.6683C11.9642 14.1926 11.5803 14.6216 11.056 14.6216H10.8317V15.1835H10.0732V12.7149ZM10.8317 13.3723V13.9642H10.8737C11.0365 13.9642 11.1696 13.8309 11.1696 13.6683C11.1696 13.5054 11.0365 13.3723 10.8737 13.3723H10.8317Z" fill="#D5232B"/>
<path fill-rule="evenodd" clip-rule="evenodd" d="M7.29926 12.7119C7.62603 12.7119 7.92303 12.8388 8.14381 13.0461L7.70983 13.5986C7.61121 13.4821 7.46389 13.4083 7.29926 13.4083C7.00226 13.4083 6.76143 13.6491 6.76143 13.9461C6.76143 14.2432 7.00226 14.4841 7.29926 14.4841C7.46389 14.4841 7.61121 14.4102 7.70983 14.2938L8.14381 14.8462C7.92303 15.0534 7.62603 15.1804 7.29926 15.1804C6.6176 15.1804 6.06494 14.6279 6.06494 13.9461C6.06494 13.2644 6.6176 12.7119 7.29926 12.7119Z" fill="#D5232B"/>
<path fill-rule="evenodd" clip-rule="evenodd" d="M12.9824 12.7149L14.2777 15.1835H11.687L12.9824 12.7149Z" fill="#D5232B"/>
<path fill-rule="evenodd" clip-rule="evenodd" d="M12.6701 15.1835H12.1729L13.0021 13.9185L13.6057 14.5762L12.6701 15.1835Z" fill="#E6E6E6"/>
<path fill-rule="evenodd" clip-rule="evenodd" d="M12.6602 14.44L13.002 13.9185L13.1298 14.0578L12.6602 14.44Z" fill="#B3B3B3"/>
<path fill-rule="evenodd" clip-rule="evenodd" d="M13.1652 13.063L13.3422 13.4001L12.6605 14.44L12.2896 14.0358L12.6115 13.4224L13.1652 13.063Z" fill="white"/>
<path fill-rule="evenodd" clip-rule="evenodd" d="M14.5442 12.7149H15.7541V13.3663H15.3027V15.1835H14.5442V13.3663H14.0928V12.7149H14.5442Z" fill="#D5232B"/>
<path fill-rule="evenodd" clip-rule="evenodd" d="M10.1206 15.7509L10.1384 15.629H9.44665L9.4281 15.7509H10.1206ZM9.38265 16.052L9.29834 16.6094H10.0111L10.0291 16.4875H9.45624L9.50381 16.1711H9.99682L10.0148 16.052H9.38265ZM10.9162 16.0842L11.4219 15.629H11.2399L10.6389 16.1711L10.7203 15.629H10.5802L10.4319 16.6094H10.572L10.61 16.3545L10.8167 16.1697L11.1364 16.6094H11.2933L10.9135 16.087L10.9162 16.0842ZM11.9163 16.6206C12.16 16.6206 12.3252 16.5058 12.3159 16.3153C12.3015 16.017 11.8035 16.115 11.7934 15.9092C11.7883 15.8056 11.8873 15.7368 12.0483 15.7368C12.1477 15.7368 12.2428 15.7635 12.3181 15.8153L12.3686 15.7005C12.2861 15.6473 12.17 15.6178 12.0495 15.6178C11.8101 15.6178 11.6476 15.7341 11.6568 15.9218C11.6721 16.2355 12.1697 16.1305 12.1797 16.335C12.1849 16.4413 12.0813 16.5016 11.9231 16.5016C11.8012 16.5016 11.6773 16.4581 11.5997 16.3895L11.5436 16.5016C11.6183 16.5688 11.7665 16.6206 11.9163 16.6206ZM13.1907 15.629H12.8266L12.6783 16.6094H12.8184L12.8627 16.3125H13.1246C13.4074 16.3125 13.5769 16.1668 13.5647 15.9162C13.5557 15.7341 13.419 15.629 13.1907 15.629ZM13.1215 16.1906H12.882L12.9488 15.7509H13.184C13.3324 15.7509 13.4195 15.8111 13.4252 15.9287C13.4335 16.101 13.3217 16.1906 13.1215 16.1906ZM14.7599 15.9162C14.7511 15.7341 14.6142 15.629 14.3846 15.629H14.0191L13.8708 16.6094H14.0122L14.0564 16.3097H14.345L14.5304 16.6094H14.6788L14.4839 16.2901C14.6665 16.2424 14.7694 16.1108 14.7599 15.9162ZM14.3167 16.1906H14.0744L14.1412 15.7509H14.3778C14.5278 15.7509 14.6147 15.8111 14.6204 15.9287C14.6289 16.101 14.5169 16.1906 14.3167 16.1906ZM15.9065 15.7509L15.9244 15.629H15.2325L15.214 15.7509H15.9065ZM15.1685 16.052L15.0843 16.6094H15.7971L15.8149 16.4875H15.2421L15.2898 16.1711H15.7826L15.8007 16.052H15.1685ZM16.521 16.6206C16.7645 16.6206 16.9299 16.5058 16.9206 16.3153C16.906 16.017 16.408 16.115 16.3981 15.9092C16.393 15.8056 16.4918 15.7368 16.653 15.7368C16.7523 15.7368 16.8475 15.7635 16.9228 15.8153L16.9733 15.7005C16.8908 15.6473 16.7745 15.6178 16.6541 15.6178C16.4146 15.6178 16.2522 15.7341 16.2615 15.9218C16.2766 16.2355 16.7744 16.1305 16.7842 16.335C16.7895 16.4413 16.686 16.5016 16.5277 16.5016C16.4059 16.5016 16.2819 16.4581 16.2044 16.3895L16.1483 16.5016C16.2229 16.5688 16.371 16.6206 16.521 16.6206Z" fill="#999999"/>
</svg>
