<svg width="21" height="21" viewBox="0 0 21 21" fill="none" xmlns="http://www.w3.org/2000/svg">
<path d="M14.875 7H17.5L20.125 10.549V15.75H18.3444C18.2404 16.48 17.8764 17.148 17.3195 17.6312C16.7625 18.1144 16.0499 18.3805 15.3125 18.3805C14.5751 18.3805 13.8625 18.1144 13.3055 17.6312C12.7486 17.148 12.3846 16.48 12.2806 15.75H7.84438C7.74036 16.48 7.37644 17.148 6.81947 17.6312C6.2625 18.1144 5.54988 18.3805 4.8125 18.3805C4.07512 18.3805 3.3625 18.1144 2.80553 17.6312C2.24856 17.148 1.88465 16.48 1.78063 15.75H0.875V5.25C0.875 5.01794 0.967187 4.79538 1.13128 4.63128C1.29538 4.46719 1.51794 4.375 1.75 4.375H14C14.2321 4.375 14.4546 4.46719 14.6187 4.63128C14.7828 4.79538 14.875 5.01794 14.875 5.25V7ZM14.875 8.75V11.375H18.375V11.1256L16.618 8.75H14.875Z" fill="#FBB133"/>
</svg>
