<svg width="109" height="18" viewBox="0 0 109 18" fill="none" xmlns="http://www.w3.org/2000/svg">
<rect x="33" width="76" height="18" fill="#FBB138"/>
<rect width="17" height="17" rx="8.5" fill="#29AAE3"/>
<path d="M7.74978 9.68956L11.1968 6.24219L11.7274 6.77244L7.74978 10.7501L5.36328 8.36356L5.89353 7.83331L7.74978 9.68956Z" fill="white"/>
<path d="M52.36 5.428H48.34V7.816C48.508 7.592 48.756 7.404 49.084 7.252C49.42 7.1 49.776 7.024 50.152 7.024C50.824 7.024 51.368 7.168 51.784 7.456C52.208 7.744 52.508 8.108 52.684 8.548C52.868 8.988 52.96 9.452 52.96 9.94C52.96 10.532 52.844 11.06 52.612 11.524C52.388 11.98 52.048 12.34 51.592 12.604C51.144 12.868 50.592 13 49.936 13C49.064 13 48.364 12.784 47.836 12.352C47.308 11.92 46.992 11.348 46.888 10.636H48.22C48.308 11.012 48.504 11.312 48.808 11.536C49.112 11.752 49.492 11.86 49.948 11.86C50.516 11.86 50.94 11.688 51.22 11.344C51.508 11 51.652 10.544 51.652 9.976C51.652 9.4 51.508 8.96 51.22 8.656C50.932 8.344 50.508 8.188 49.948 8.188C49.556 8.188 49.224 8.288 48.952 8.488C48.688 8.68 48.496 8.944 48.376 9.28H47.08V4.228H52.36V5.428ZM54.3841 8.512C54.3841 7.128 54.6161 6.048 55.0801 5.272C55.5521 4.488 56.3601 4.096 57.5041 4.096C58.6481 4.096 59.4521 4.488 59.9161 5.272C60.3881 6.048 60.6241 7.128 60.6241 8.512C60.6241 9.912 60.3881 11.008 59.9161 11.8C59.4521 12.584 58.6481 12.976 57.5041 12.976C56.3601 12.976 55.5521 12.584 55.0801 11.8C54.6161 11.008 54.3841 9.912 54.3841 8.512ZM59.2801 8.512C59.2801 7.864 59.2361 7.316 59.1481 6.868C59.0681 6.42 58.9001 6.056 58.6441 5.776C58.3881 5.488 58.0081 5.344 57.5041 5.344C57.0001 5.344 56.6201 5.488 56.3641 5.776C56.1081 6.056 55.9361 6.42 55.8481 6.868C55.7681 7.316 55.7281 7.864 55.7281 8.512C55.7281 9.184 55.7681 9.748 55.8481 10.204C55.9281 10.66 56.0961 11.028 56.3521 11.308C56.6161 11.588 57.0001 11.728 57.5041 11.728C58.0081 11.728 58.3881 11.588 58.6441 11.308C58.9081 11.028 59.0801 10.66 59.1601 10.204C59.2401 9.748 59.2801 9.184 59.2801 8.512ZM61.8556 6.364C61.8556 5.78 62.0236 5.324 62.3596 4.996C62.7036 4.66 63.1436 4.492 63.6796 4.492C64.2156 4.492 64.6516 4.66 64.9876 4.996C65.3316 5.324 65.5036 5.78 65.5036 6.364C65.5036 6.948 65.3316 7.408 64.9876 7.744C64.6516 8.08 64.2156 8.248 63.6796 8.248C63.1436 8.248 62.7036 8.08 62.3596 7.744C62.0236 7.408 61.8556 6.948 61.8556 6.364ZM69.1756 4.648L64.3876 13H63.0436L67.8316 4.648H69.1756ZM63.6796 5.32C63.1756 5.32 62.9236 5.668 62.9236 6.364C62.9236 7.068 63.1756 7.42 63.6796 7.42C63.9196 7.42 64.1036 7.336 64.2316 7.168C64.3676 6.992 64.4356 6.724 64.4356 6.364C64.4356 5.668 64.1836 5.32 63.6796 5.32ZM66.7396 11.272C66.7396 10.688 66.9076 10.232 67.2436 9.904C67.5876 9.568 68.0276 9.4 68.5636 9.4C69.0916 9.4 69.5236 9.568 69.8596 9.904C70.2036 10.232 70.3756 10.688 70.3756 11.272C70.3756 11.856 70.2036 12.316 69.8596 12.652C69.5236 12.988 69.0916 13.156 68.5636 13.156C68.0276 13.156 67.5876 12.988 67.2436 12.652C66.9076 12.316 66.7396 11.856 66.7396 11.272ZM68.5516 10.228C68.0476 10.228 67.7956 10.576 67.7956 11.272C67.7956 11.968 68.0476 12.316 68.5516 12.316C69.0556 12.316 69.3076 11.968 69.3076 11.272C69.3076 10.576 69.0556 10.228 68.5516 10.228ZM75.5829 13.084C74.8069 13.084 74.0909 12.904 73.4349 12.544C72.7869 12.176 72.2709 11.668 71.8869 11.02C71.5109 10.364 71.3229 9.628 71.3229 8.812C71.3229 7.996 71.5109 7.264 71.8869 6.616C72.2709 5.968 72.7869 5.464 73.4349 5.104C74.0909 4.736 74.8069 4.552 75.5829 4.552C76.3669 4.552 77.0829 4.736 77.7309 5.104C78.3869 5.464 78.9029 5.968 79.2789 6.616C79.6549 7.264 79.8429 7.996 79.8429 8.812C79.8429 9.628 79.6549 10.364 79.2789 11.02C78.9029 11.668 78.3869 12.176 77.7309 12.544C77.0829 12.904 76.3669 13.084 75.5829 13.084ZM75.5829 11.896C76.1349 11.896 76.6269 11.772 77.0589 11.524C77.4909 11.268 77.8269 10.908 78.0669 10.444C78.3149 9.972 78.4389 9.428 78.4389 8.812C78.4389 8.196 78.3149 7.656 78.0669 7.192C77.8269 6.728 77.4909 6.372 77.0589 6.124C76.6269 5.876 76.1349 5.752 75.5829 5.752C75.0309 5.752 74.5389 5.876 74.1069 6.124C73.6749 6.372 73.3349 6.728 73.0869 7.192C72.8469 7.656 72.7269 8.196 72.7269 8.812C72.7269 9.428 72.8469 9.972 73.0869 10.444C73.3349 10.908 73.6749 11.268 74.1069 11.524C74.5389 11.772 75.0309 11.896 75.5829 11.896ZM86.0971 4.66V5.776H82.5571V8.236H85.3171V9.352H82.5571V13H81.1891V4.66H86.0971ZM92.2728 4.66V5.776H88.7328V8.236H91.4928V9.352H88.7328V13H87.3648V4.66H92.2728Z" fill="white"/>
</svg>
