<svg width="110" height="93" viewBox="0 0 110 93" fill="none" xmlns="http://www.w3.org/2000/svg">
<path fill-rule="evenodd" clip-rule="evenodd" d="M3.47809 0C1.83739 0 1.12885 2.079 2.42808 3.08095C3.35237 3.79376 3.31297 5.20072 2.35023 5.86069L1.25432 6.61193C-0.0649555 7.5163 -0.00531165 9.48266 1.36635 10.3054C2.73802 11.1282 2.79766 13.0945 1.47838 13.9989L1.26983 14.1418C-0.0963407 15.0784 -0.0963399 17.0946 1.26983 18.0311L1.36635 18.0973C2.77901 19.0657 2.77901 21.1505 1.36635 22.1189L1.20053 22.2326C-0.196016 23.1899 -0.30481 25.2113 0.98091 26.313L1.77348 26.9921C3.01611 28.0569 2.85011 30.0262 1.44676 30.868C-0.00146317 31.7367 -0.121384 33.7905 1.21591 34.8218L1.69338 35.19C3.06118 36.2449 3.16156 38.2728 1.90461 39.4575L0.957916 40.3498C-0.340132 41.5733 -0.176401 43.683 1.29488 44.6915C2.81117 45.731 2.9293 47.9256 1.53334 49.1218L0.980907 49.5951C-0.304812 50.6969 -0.196015 52.7182 1.20053 53.6755L1.46288 53.8554C2.82905 54.7919 2.80685 56.8233 1.44068 57.7599C0.0451807 58.7165 0.0849193 60.8125 1.53584 61.6827C2.89537 62.4982 3.05619 64.4061 1.85235 65.4376L1.03043 66.1419C-0.247231 67.2367 -0.0765478 69.2616 1.36635 70.127C2.80925 70.9925 2.97993 73.0174 1.70227 74.1122L1.18925 74.5518C-0.232368 75.7699 -0.175219 77.9868 1.30728 79.1301L1.53146 79.303C2.95927 80.4041 3.01431 82.5392 1.64514 83.7125L0.701461 84.5211C-0.381496 85.4491 -0.178561 87.1787 1.08978 87.8308L2.27742 88.4414C3.15935 88.8948 3.20011 90.1406 2.34969 90.6507C1.24962 91.3106 1.71744 93 3.00024 93H4.29969H5.0004H6.43302H107C108.657 93 110 91.6569 110 90V3C110 1.34315 108.657 0 107 0H6.43302H5.0004H3.47809Z" fill="#FBB133"/>
<path d="M43.1978 36.668H44.9738V40.076C44.5178 40.42 43.9898 40.684 43.3898 40.868C42.7898 41.052 42.1858 41.144 41.5778 41.144C40.7058 41.144 39.9218 40.96 39.2258 40.592C38.5298 40.216 37.9818 39.7 37.5818 39.044C37.1898 38.38 36.9938 37.632 36.9938 36.8C36.9938 35.968 37.1898 35.224 37.5818 34.568C37.9818 33.904 38.5338 33.388 39.2378 33.02C39.9418 32.644 40.7338 32.456 41.6138 32.456C42.3498 32.456 43.0178 32.58 43.6178 32.828C44.2178 33.076 44.7218 33.436 45.1298 33.908L43.8818 35.06C43.2818 34.428 42.5578 34.112 41.7098 34.112C41.1738 34.112 40.6978 34.224 40.2818 34.448C39.8658 34.672 39.5418 34.988 39.3098 35.396C39.0778 35.804 38.9618 36.272 38.9618 36.8C38.9618 37.32 39.0778 37.784 39.3098 38.192C39.5418 38.6 39.8618 38.92 40.2698 39.152C40.6858 39.376 41.1578 39.488 41.6858 39.488C42.2458 39.488 42.7498 39.368 43.1978 39.128V36.668ZM48.4356 35.396C48.6596 35.084 48.9596 34.848 49.3356 34.688C49.7196 34.528 50.1596 34.448 50.6556 34.448V36.176C50.4476 36.16 50.3076 36.152 50.2356 36.152C49.6996 36.152 49.2796 36.304 48.9756 36.608C48.6716 36.904 48.5196 37.352 48.5196 37.952V41H46.6476V34.544H48.4356V35.396ZM54.3375 34.448C55.3375 34.448 56.1055 34.688 56.6415 35.168C57.1775 35.64 57.4455 36.356 57.4455 37.316V41H55.6935V40.196C55.3415 40.796 54.6855 41.096 53.7255 41.096C53.2295 41.096 52.7975 41.012 52.4295 40.844C52.0695 40.676 51.7935 40.444 51.6015 40.148C51.4095 39.852 51.3135 39.516 51.3135 39.14C51.3135 38.54 51.5375 38.068 51.9855 37.724C52.4415 37.38 53.1415 37.208 54.0855 37.208H55.5735C55.5735 36.8 55.4495 36.488 55.2015 36.272C54.9535 36.048 54.5815 35.936 54.0855 35.936C53.7415 35.936 53.4015 35.992 53.0655 36.104C52.7375 36.208 52.4575 36.352 52.2255 36.536L51.5535 35.228C51.9055 34.98 52.3255 34.788 52.8135 34.652C53.3095 34.516 53.8175 34.448 54.3375 34.448ZM54.1935 39.836C54.5135 39.836 54.7975 39.764 55.0455 39.62C55.2935 39.468 55.4695 39.248 55.5735 38.96V38.3H54.2895C53.5215 38.3 53.1375 38.552 53.1375 39.056C53.1375 39.296 53.2295 39.488 53.4135 39.632C53.6055 39.768 53.8655 39.836 54.1935 39.836ZM63.3038 40.688C63.1198 40.824 62.8918 40.928 62.6198 41C62.3558 41.064 62.0758 41.096 61.7798 41.096C61.0118 41.096 60.4158 40.9 59.9918 40.508C59.5758 40.116 59.3678 39.54 59.3678 38.78V36.128H58.3718V34.688H59.3678V33.116H61.2398V34.688H62.8478V36.128H61.2398V38.756C61.2398 39.028 61.3078 39.24 61.4438 39.392C61.5878 39.536 61.7878 39.608 62.0438 39.608C62.3398 39.608 62.5918 39.528 62.7998 39.368L63.3038 40.688ZM64.3546 34.544H66.2266V41H64.3546V34.544ZM65.2906 33.644C64.9466 33.644 64.6666 33.544 64.4506 33.344C64.2346 33.144 64.1266 32.896 64.1266 32.6C64.1266 32.304 64.2346 32.056 64.4506 31.856C64.6666 31.656 64.9466 31.556 65.2906 31.556C65.6346 31.556 65.9146 31.652 66.1306 31.844C66.3466 32.036 66.4546 32.276 66.4546 32.564C66.4546 32.876 66.3466 33.136 66.1306 33.344C65.9146 33.544 65.6346 33.644 65.2906 33.644ZM70.136 41.096C69.6 41.096 69.076 41.032 68.564 40.904C68.052 40.768 67.644 40.6 67.34 40.4L67.964 39.056C68.252 39.24 68.6 39.392 69.008 39.512C69.416 39.624 69.816 39.68 70.208 39.68C71 39.68 71.396 39.484 71.396 39.092C71.396 38.908 71.288 38.776 71.072 38.696C70.856 38.616 70.524 38.548 70.076 38.492C69.548 38.412 69.112 38.32 68.768 38.216C68.424 38.112 68.124 37.928 67.868 37.664C67.62 37.4 67.496 37.024 67.496 36.536C67.496 36.128 67.612 35.768 67.844 35.456C68.084 35.136 68.428 34.888 68.876 34.712C69.332 34.536 69.868 34.448 70.484 34.448C70.94 34.448 71.392 34.5 71.84 34.604C72.296 34.7 72.672 34.836 72.968 35.012L72.344 36.344C71.776 36.024 71.156 35.864 70.484 35.864C70.084 35.864 69.784 35.92 69.584 36.032C69.384 36.144 69.284 36.288 69.284 36.464C69.284 36.664 69.392 36.804 69.608 36.884C69.824 36.964 70.168 37.04 70.64 37.112C71.168 37.2 71.6 37.296 71.936 37.4C72.272 37.496 72.564 37.676 72.812 37.94C73.06 38.204 73.184 38.572 73.184 39.044C73.184 39.444 73.064 39.8 72.824 40.112C72.584 40.424 72.232 40.668 71.768 40.844C71.312 41.012 70.768 41.096 70.136 41.096ZM38.2909 56.144C37.4189 56.144 36.6309 55.956 35.9269 55.58C35.2309 55.204 34.6829 54.688 34.2829 54.032C33.8909 53.368 33.6949 52.624 33.6949 51.8C33.6949 50.976 33.8909 50.236 34.2829 49.58C34.6829 48.916 35.2309 48.396 35.9269 48.02C36.6309 47.644 37.4189 47.456 38.2909 47.456C39.1629 47.456 39.9469 47.644 40.6429 48.02C41.3389 48.396 41.8869 48.916 42.2869 49.58C42.6869 50.236 42.8869 50.976 42.8869 51.8C42.8869 52.624 42.6869 53.368 42.2869 54.032C41.8869 54.688 41.3389 55.204 40.6429 55.58C39.9469 55.956 39.1629 56.144 38.2909 56.144ZM38.2909 54.488C38.7869 54.488 39.2349 54.376 39.6349 54.152C40.0349 53.92 40.3469 53.6 40.5709 53.192C40.8029 52.784 40.9189 52.32 40.9189 51.8C40.9189 51.28 40.8029 50.816 40.5709 50.408C40.3469 50 40.0349 49.684 39.6349 49.46C39.2349 49.228 38.7869 49.112 38.2909 49.112C37.7949 49.112 37.3469 49.228 36.9469 49.46C36.5469 49.684 36.2309 50 35.9989 50.408C35.7749 50.816 35.6629 51.28 35.6629 51.8C35.6629 52.32 35.7749 52.784 35.9989 53.192C36.2309 53.6 36.5469 53.92 36.9469 54.152C37.3469 54.376 37.7949 54.488 38.2909 54.488ZM48.1399 49.448C48.9399 49.448 49.5839 49.688 50.0719 50.168C50.5679 50.648 50.8159 51.36 50.8159 52.304V56H48.9439V52.592C48.9439 52.08 48.8319 51.7 48.6079 51.452C48.3839 51.196 48.0599 51.068 47.6359 51.068C47.1639 51.068 46.7879 51.216 46.5079 51.512C46.2279 51.8 46.0879 52.232 46.0879 52.808V56H44.2159V49.544H46.0039V50.3C46.2519 50.028 46.5599 49.82 46.9279 49.676C47.2959 49.524 47.6999 49.448 48.1399 49.448ZM59.2431 49.544V54.92C59.2431 56.104 58.9351 56.984 58.3191 57.56C57.7031 58.136 56.8031 58.424 55.6191 58.424C54.9951 58.424 54.4031 58.348 53.8431 58.196C53.2831 58.044 52.8191 57.824 52.4511 57.536L53.1951 56.192C53.4671 56.416 53.8111 56.592 54.2271 56.72C54.6431 56.856 55.0591 56.924 55.4751 56.924C56.1231 56.924 56.5991 56.776 56.9031 56.48C57.2151 56.192 57.3711 55.752 57.3711 55.16V54.884C56.8831 55.42 56.2031 55.688 55.3311 55.688C54.7391 55.688 54.1951 55.56 53.6991 55.304C53.2111 55.04 52.8231 54.672 52.5351 54.2C52.2471 53.728 52.1031 53.184 52.1031 52.568C52.1031 51.952 52.2471 51.408 52.5351 50.936C52.8231 50.464 53.2111 50.1 53.6991 49.844C54.1951 49.58 54.7391 49.448 55.3311 49.448C56.2671 49.448 56.9791 49.756 57.4671 50.372V49.544H59.2431ZM55.7031 54.152C56.1991 54.152 56.6031 54.008 56.9151 53.72C57.2351 53.424 57.3951 53.04 57.3951 52.568C57.3951 52.096 57.2351 51.716 56.9151 51.428C56.6031 51.132 56.1991 50.984 55.7031 50.984C55.2071 50.984 54.7991 51.132 54.4791 51.428C54.1591 51.716 53.9991 52.096 53.9991 52.568C53.9991 53.04 54.1591 53.424 54.4791 53.72C54.7991 54.008 55.2071 54.152 55.7031 54.152ZM63.7575 53.468L62.8575 54.356V56H60.9855V47.096H62.8575V52.136L65.5935 49.544H67.8255L65.1375 52.28L68.0655 56H65.7975L63.7575 53.468ZM68.8605 49.544H70.7325V56H68.8605V49.544ZM69.7965 48.644C69.4525 48.644 69.1725 48.544 68.9565 48.344C68.7405 48.144 68.6325 47.896 68.6325 47.6C68.6325 47.304 68.7405 47.056 68.9565 46.856C69.1725 46.656 69.4525 46.556 69.7965 46.556C70.1405 46.556 70.4205 46.652 70.6365 46.844C70.8525 47.036 70.9605 47.276 70.9605 47.564C70.9605 47.876 70.8525 48.136 70.6365 48.344C70.4205 48.544 70.1405 48.644 69.7965 48.644ZM74.2578 50.396C74.4818 50.084 74.7818 49.848 75.1578 49.688C75.5418 49.528 75.9818 49.448 76.4778 49.448V51.176C76.2698 51.16 76.1298 51.152 76.0578 51.152C75.5218 51.152 75.1018 51.304 74.7978 51.608C74.4938 51.904 74.3418 52.352 74.3418 52.952V56H72.4698V49.544H74.2578V50.396Z" fill="white"/>
</svg>
